<svg xmlns="http://www.w3.org/2000/svg" width="353.841" height="804.154" viewBox="0 0 353.841 804.154">
  <g id="Calque_2" data-name="Calque 2" transform="translate(0 0)">
    <g id="Calque_1" data-name="Calque 1" transform="translate(0 0)">
      <path id="Path_9753" data-name="Path 9753" d="M106.446,60.73c14.945,7.311,16.073,22.256,2.424,32.4a35.982,35.982,0,0,1-23.8,7.557c-7.051-.337-14.129-.92-21.932,1.542,1.815-4.55,7.194-7.777,2.152-12.184,4.614-4.368,0-10.771,3.435-15.412-1.763-3.629.946-5.185,3.24-6.831.674-1.568,2.891-2.45,2.113-4.679,3.02-9.073,11.575-8.9,18.665-11.186,4.472-.713,8.568.765,12.638,2.268C108.883,55.87,104.787,58.773,106.446,60.73Z" transform="translate(18.702 15.33)" fill="#2f4413"/>
      <path id="Path_9754" data-name="Path 9754" d="M111.467,40.991l-5.185-3.811C102.3,29.4,108.33,16.065,118.79,10.154c5.288-.337,7.362,3.889,10.136,7.1a13.324,13.324,0,0,1,1.024,2.009c.518,3.889,4.329,3.344,6.585,4.887a5.016,5.016,0,0,1,1.439,1.854,4.666,4.666,0,0,1-.713,4.511c-4.252.894-8.736,1.4-10.758,6.183-2.074,2.994-5.068,4.887-8.049,6.805a6.727,6.727,0,0,1-3.59.57A4.459,4.459,0,0,1,111.467,40.991Z" transform="translate(31.114 3.002)" fill="#817a31"/>
      <path id="Path_9755" data-name="Path 9755" d="M203.9,29.162l8.892,6.481c2.229,1.1,6.559.687,5.185,4.8s-4.433,1.789-6.87.544c-4.835-3.448-9.812-6.675-14.686-10.046-9.073-6.287-17.784-5.522-27.065-.7-4.368,2.268-8.555,5.9-14.18,4.316-2.178-2.009-5.029-2.268-7.686-3.124-2.165-.7-5.263-.855-4.653-4.55l3.422-.428c6.481-1.3,12.962.531,19.443-1.089l14.673-5.807c1.581-2.333,3.629-3.539,6.481-2.7a13.96,13.96,0,0,1,5.185,5.185v-.117c5.016.57,8.71,3.448,12.055,6.935Z" transform="translate(42.285 4.915)" fill="#61645d"/>
      <path id="Path_9756" data-name="Path 9756" d="M124.811,21.634,115.66,13.2a25.613,25.613,0,0,0,.739-3.1C116.9,6.209,116.127-.039,120.91,0c5.561,0,5.561,6.481,6.2,11.044A7.479,7.479,0,0,1,128.57,14.8C128.389,17.667,127.65,20.234,124.811,21.634Z" transform="translate(34.258 0)" fill="#51653e"/>
      <path id="Path_9757" data-name="Path 9757" d="M124.31,12.266l.233-3.746c5.548.7,11.238.868,16.617,2.242,8.023,2.048,9.32,8.62,3.409,14.945a3.124,3.124,0,0,1-2.385-2.45c.765-5.327-1.776-7.661-6.909-8.127C131.5,14.794,127.291,15.779,124.31,12.266Z" transform="translate(36.82 2.524)" fill="#939c8e"/>
      <path id="Path_9758" data-name="Path 9758" d="M142.2,21.537l1.724,1.763c-2.126,1.439-.6,2.463.415,3.552,2,3.487.117,6.053-2.022,8.555-.3-.207-.609-.428-.92-.622-1.672-2.178-1.646-5.638-5-6.481-2.178-1.167-4.485-2.165-5.937-4.316l-.428-.648c-1.75-1.607-5.314-2.463-2.476-5.975C133.333,15.588,138.168,17.169,142.2,21.537Z" transform="translate(37.466 4.931)" fill="#73775f"/>
      <path id="Path_9759" data-name="Path 9759" d="M270.321,218.017l3.072,3.616a113.585,113.585,0,0,1,15.282,24.355c5.859,12.651,2.592,25.379-2.437,37.071-6.481,15.075-13.558,30.02-23.643,43.189-2.216,2.9-2.826,6.066-3.215,9.683l-9.786-5.107c-2.592-2.087-6.4-1.8-8.5-4.705-3.681-5.029-5.185-11.342-9.6-15.982-1.3-1.3-3.616-2.489-2.229-4.861,1.1-1.905,3.266-2.035,5.3-2a17.045,17.045,0,0,1,6.481,1.97c4.3-1.892.1-2.45-.635-3.111-2.437-2.216-7.246-2.346-6.274-7.44,6.235-1.3,8.516-6.675,8.023-11.368-.778-7.4-1.452-15.477-7.207-21.322-7.686-7.777-12.742-17.162-16.773-27.22a27.777,27.777,0,0,0-6.105-10.084c-2.942-2.865-2.761-6.637-2.476-10.37,1.089-5.872,5.846-8.347,10.279-11.121,2.476-1.3,5.094,1.361,7.557-.285C243.567,202.618,257.709,208.114,270.321,218.017Z" transform="translate(62.036 60.082)" fill="#1e2d19"/>
      <path id="Path_9760" data-name="Path 9760" d="M197.745,393.719c6.831,5.185,8.347,14.012,13.467,20.389,3.889,3.694,9.164,6.235,9.864,12.43,4.913,9.073,13.779,10.927,24.705,12.482-9.6,5.716-18.847,8.788-26.118,15.062-7.907-1.426-15.865-3.889-23.332,1.646-1.115.83-2.5,1.3-3.629,2.152-10.227,7.557-15.827,6.287-22.8-5.185-.985-3.629-.467-6.961,2.865-9.073,5.185-3.215,2.942-6.338.441-9.851-5.574-7.842-12.353-14.7-18.069-22.437a15.788,15.788,0,0,1,4.835-12.534c4.42-2.139,9.073-4.1,8.633-10.37a7,7,0,0,1,1.646-3.124c2.346-2.385,5.768-3.24,7.466-.57C182.567,392.41,191.381,390.09,197.745,393.719Z" transform="translate(45.939 113.469)" fill="#305315"/>
      <path id="Path_9761" data-name="Path 9761" d="M170,437.353a25.923,25.923,0,0,0,8.97,7.583c2.359,1.205,6.209,1.931,6.9-.454,1.854-6.481,7.959-5.522,11.9-8.166,7.557-5.081,14.258-3.292,20.324,2.878-8.192,9.073-16.695,17.887-27.376,24.174-6.74,6.481-14.751,7.246-23.331,5.107-3.772-1.659-6.39-4.3-7.1-8.516A148.375,148.375,0,0,1,170,437.353Z" transform="translate(47.474 128.358)" fill="#3a6114"/>
      <path id="Path_9762" data-name="Path 9762" d="M200.522,358.083c-4.381,3.889-11.977.57-15.23,6.883-2.942-3.344-3.137-3.487.454-7.985,3.889-4.822,6.753-9.657,4.083-16.345-3.889,3.111-4.277,9.307-10.11,9.864-4.511-3.02-1.089-6.014,0-9.073,5.185-9.2,4.044-19.287,3.979-29.229.791-2.216,2.126-3.785,4.679-3.889,5.768,4.187-.894,9.553,1.4,13.545,1.011-1.841-2.865-7.375,4.485-5.988,1.8.35,1.53-3.72,1.892-5.807.8-4.485,1.594-8.827,7.622-9.359a11.121,11.121,0,0,1-6.909-5.016,5.275,5.275,0,0,1,1.542-5.781c2.761-1.413,4.757.246,6.805,1.672,3.2,3.526,7.622,5,11.782,6.935a21.127,21.127,0,0,0,6.65,2.592c4.1.817,8.218,1.62,6.157,7.479l-1.828,3.137c-2.735,3.733-5.975,1.62-8.892.557-4.135-1.5-1.944,1.789-2.476,3.007-4.031,11.938-7.259,24.213-14.712,34.686-1.115,1.581-2.476,3.124-1.763,5.314C200.561,356.294,201.158,357.085,200.522,358.083Z" transform="translate(52.559 85.708)" fill="#476323"/>
      <path id="Path_9763" data-name="Path 9763" d="M218.6,318.94c13.3,3.318,24.083,20.817,23.63,38.406-.156,5.379-.674,10.745-1.154,18.289-6.792-18.354-22.269-28.607-29.138-44.771a3.889,3.889,0,0,1-2.67-2.463,9.242,9.242,0,0,1,2.268-8.27C213.714,318.694,216.514,320.936,218.6,318.94Z" transform="translate(61.921 94.468)" fill="#577518"/>
      <path id="Path_9764" data-name="Path 9764" d="M197.245,405.8c-5.418,2.787-11.082-4.1-16.851.6-1.3,1.05-3.046-2.592-3.24-4.887-.467-5.431-3.189-4.433-6.364-2.346-6.481-5.664-9.4-13.714-13.584-20.908-.739-3.033-.687-5.911,1.737-8.283,6.144-5.185,6.014-12.34,6.131-19.443,0-2.852-2.268-6.312,1.879-8.244,5.535,3.526,6.688,9.981,10.007,14.984,2.359,3.552,3.176,7.933,6.04,11.212h0c-3.629,9.073,4.342,17.226,2.061,26.326-.35,1.413,3.357,2.592,4.589,4.55Z" transform="translate(46.44 101.384)" fill="#436322"/>
      <path id="Path_9765" data-name="Path 9765" d="M199.8,552.336l-3.24,3.513a20.635,20.635,0,0,0-8.659,6.014c-1.724,1.854-3.889,4.653-6.416.6-.531-3.889,1.374-7.077,2.683-10.447,2.878-4.614,5.379-9.449,8.127-14.154.739-1.3,1.53-2.592,2.294-3.889a78.889,78.889,0,0,0,4.913-10.162,210.2,210.2,0,0,0,12.962-29.346c.855-2.981-1.7-5.263-1.672-8.075a1.75,1.75,0,0,1,1.3-1.555c3.15.441,5.185,6.209,9.346,1.97,8.451-.35,6.209,5.69,5.016,9.67a290.284,290.284,0,0,1-10.758,28.361C208.921,533.087,206.122,543.729,199.8,552.336Z" transform="translate(53.726 143.604)" fill="#3f5625"/>
      <path id="Path_9766" data-name="Path 9766" d="M167.368,459.362c8.3,1.633,16.1-.817,23.954-2.852a15.981,15.981,0,0,1-1.3,3.1c-6.753,9.825-6.312,11.277,4.64,15.736a45.113,45.113,0,0,1,5.107,2.878,4.938,4.938,0,0,1-3.707,3.059c-2.7.531-5.47-.22-8.166,1.3-11.432,6.209-16.708,5.042-24.628-5.042-.454-3.668-2.592-6.416-5.016-8.983-.441-4.433,4.666-3.5,5.975-6.235a6.779,6.779,0,0,1,3.137-2.955Z" transform="translate(46.867 135.216)" fill="#8da28e"/>
      <path id="Path_9767" data-name="Path 9767" d="M213.222,307.048l-5.055-2.657c1.141-2.139-.739-2.7-1.944-3.642-2.994-7.323-2.592-7.959,5.353-7.518.091-1.478-1.154-2.592-1.3-3.966-.311-4.3-.894-9.488,3.772-11.186s8,1.905,10.37,5.794c4.951,8.257,14.6,11.808,19.728,19.858,2.929.765,5.937,1.426,6.9,4.939l-18.678-.078C226.392,303.315,219.781,305.506,213.222,307.048Z" transform="translate(60.573 82.238)" fill="#53634f"/>
      <path id="Path_9768" data-name="Path 9768" d="M207.348,524.978q5.418-14.673,10.823-29.346c1.231-3.383,3.526-7.181-2.476-8.5,1.037-3.6,3.785-3.953,6.753-3.24,2.67.648,3.046,3.15,3.4,5.392s.441,4.511.648,6.766c.881,1.452,4.55,2.113.726,4.757-3.487,2.4-4.485,6.481-4.407,10.681,1.815,4.407-1.646,7.362-3.111,10.81-2.955,6.922-7.142,13.208-10.694,19.832l-6.481,2.061c-3.2-3.266-.493-6.286.544-9.242C204.315,531.55,206.441,528.517,207.348,524.978Z" transform="translate(59.538 143.236)" fill="#798a6a"/>
      <path id="Path_9769" data-name="Path 9769" d="M184.507,393.375a9.527,9.527,0,0,1-7.635-2.968c-.428-.493-5.664-3.616,1.024-4.044,2.268-.156,0-5.016-1.18-6.87-4.135-6.17-3.059-11.588,1.141-16.993C183.625,372.027,182.9,382.954,184.507,393.375Z" transform="translate(51.569 107.37)" fill="#57753c"/>
      <path id="Path_9770" data-name="Path 9770" d="M219.688,323.336c-1.737,2.437-4.5.6-6.585,1.568-5.068-3.072-4.822-8.762-6.649-13.442.765-2.333-2.67-5.185-.091-6.74,1.879-1.167,4.9-.622,7.051,1.037a8.386,8.386,0,0,0,6.287,1.7c-1.465,3.305-3.124,6.546-4.355,9.942C213.959,321.262,215.488,323.413,219.688,323.336Z" transform="translate(60.834 90.073)" fill="#b6be95"/>
      <path id="Path_9771" data-name="Path 9771" d="M180.731,369.561c-7.155-7.3-11.847-16.1-15.425-25.561a3.266,3.266,0,0,1-.894-2.489,3.4,3.4,0,0,1,1.53-2.2c3.979-1.089,7.531-1.452,7.622,4.316-4.472,1.063-3.2,3.111-1.426,5.988C175.935,355.808,179.785,362.082,180.731,369.561Z" transform="translate(48.695 100.31)" fill="#586a3b"/>
      <path id="Path_9772" data-name="Path 9772" d="M211.23,301.281c5.029-5.7,11.912-3.889,18.147-3.889,2.592,0,2.229,3.279,1.1,5.47-3.889.22-7.972-.3-10.616,3.565C219.487,300.413,214.82,301.8,211.23,301.281Z" transform="translate(62.565 88.005)" fill="#8a9885"/>
      <path id="Path_9773" data-name="Path 9773" d="M208.254,419.451c-4.913-2.865-7.466-7.583-9.864-12.431,2.955.946,5.924,1.828,8.84,2.839C214.294,412.321,214,415.614,208.254,419.451Z" transform="translate(58.762 120.557)" fill="#627255"/>
      <path id="Path_9774" data-name="Path 9774" d="M174.2,345.972c-1.387-3.889-5.185-3.007-8.023-4.083-4.446-.661-4.135-3.889-3.733-7.077a4.368,4.368,0,0,1,3.007-3.889c4.226-1.141,4.77,3.124,6.961,4.99,1.672,1.97,4.264,2.9,5.768,5.068a6.481,6.481,0,0,1,0,5Z" transform="translate(48.05 97.961)" fill="#9e9e78"/>
      <path id="Path_9775" data-name="Path 9775" d="M187.77,474.828l3.292-1.568a58.768,58.768,0,0,1,19.21,14.958,5.6,5.6,0,0,1-1.076,1.205C199.462,488.374,193.745,481.4,187.77,474.828Z" transform="translate(55.616 140.177)" fill="#4c5647"/>
      <path id="Path_9776" data-name="Path 9776" d="M174.786,343.423c-.117-1.3-2.437-2.385-.181-3.733,3.176-.8,3.59,2.307,5.185,3.694,1.439,3.2,7.479,6.325.169,9.683C177.806,350.1,179.984,344.771,174.786,343.423Z" transform="translate(51.426 100.576)" fill="#5f633a"/>
      <path id="Path_9777" data-name="Path 9777" d="M78.662,272.285c-16.488,14.725-36.786,17.5-57.668,18.406a5.263,5.263,0,0,1-5.081-2.216c-7.479-10.447-14.4-21.1-14.53-34.6-1.128-3.6,1.452-5.055,3.046-7.777,5.613-9.41,9.2-20.052,16.358-28.711,1.854-2.242-.13-3.305-1.581-4.77-5-5.055-4.589-7.453,1.646-10.732a65.432,65.432,0,0,1,10.37-3.681C39,195.615,46.776,193.334,52.7,186.762c4.252-4.757,10.37-4.589,16.41-3.616a13.4,13.4,0,0,1,3.513,9.462c1.011,3.889,2.515,8.036.4,11.666C65.4,217.4,72.4,228.6,79.09,238.3s11.368,17.55,2.385,27.92C80.257,267.749,80.308,270.574,78.662,272.285Z" transform="translate(0.328 54.084)" fill="#1f2d1c"/>
      <path id="Path_9778" data-name="Path 9778" d="M22.65,345.732c.1-2.268.194-4.537.3-6.805,1.5-8-.7-16.177,1.205-24.148,2.009-14.077,6.546-27.142,16.189-37.862,6.325-7.025,11.186-6.6,17.525,1.024,1.905-2.852.6-6.714,3.124-9.151.22.389.752.881.713,1.3-1.542,13.766-1.542,13.779,12.4,12.21,2.813-.324,5.6-.881,8.4-1.3,1.737,2.178,1.3,4.135-.57,5.963-2.981,2-6.481,1.75-9.76,1.867-11.355.4-11.666.674-14.336,12.171a19.443,19.443,0,0,1-1.983,5.937,54.291,54.291,0,0,1,7.544-4.174,17.8,17.8,0,0,1,8.192-1.581c7.777,2.515,14.4,7.57,22.826,8.8,4.757.687,5.016,4.913,2.216,8.568a16.462,16.462,0,0,1-16.384,6.831c-4.55-.674-8.594-.674-9.073,5.626a6.481,6.481,0,0,1-4.731,5.574c-6.714,2.255-11.264,7.427-16.6,11.575-3.811,2.968-7.868,5.3-8.594,10.9-.506,3.889-3.694,5.457-7.57,5.34-7.6-4.135-10.512-10.927-8.555-18.847,1.633-6.649,3.253-13.234,7.012-17.667-2.592,3.889-5.625,8.97-6.312,15.049C25.7,344.63,25.1,346.432,22.65,345.732Z" transform="translate(6.709 79.614)" fill="#2b3822"/>
      <path id="Path_9779" data-name="Path 9779" d="M39.643,480.9c-4.342-3.033-9.527-6.649-9.527-11.99-.117-7.7-4.744-12-9.073-16.928-6.118-21.024-6.714-41.815,2.1-62.373,2.216-5.185,7.907-8.283,8.192-14.479.13-.389.246-.778.376-1.154,5.288-8,13.351-11.471,22.2-13.675a3.889,3.889,0,0,1,4.109,2.476c.726,2.592-.622,5.185-.259,7.777a25.847,25.847,0,0,1-.091,6.637c-1.594,7.777-3.111,15.684-5.366,23.331-2.126,4.9-3.163,10.253-5.975,14.88-.285.48-1.076,1.128-.933,1.3,7.777,10.836-2.32,20.895-1.3,31.42-1.465,8.01-1.128,16.138-1.633,24.2C42.223,475.486,42.3,478.636,39.643,480.9Z" transform="translate(4.881 106.712)" fill="#28391d"/>
      <path id="Path_9780" data-name="Path 9780" d="M68.262,186.673c-15.762,6.248-28.516,18.976-46.041,21.5-1.724.246-4.394.7-4.329,3.279s2.657,2.346,4.524,2.592c5.859.972,5.716,5.094,2.489,7.777-8.827,7.246-10.888,18.289-16.851,27.078-.778,1.154.467,9.281-5.548,3.409-.169-.168-.246,3.422-.881,5.185C-.424,250.446.2,243.3.445,236.188a16.7,16.7,0,0,0,0-14.18,4.731,4.731,0,0,1,1.491-4.6l.13-1.659c-1.18-2.463.285-3.772,2.139-4.9,1.8-5.794,4.938-11,7.194-16.617,4.381-10.836,14.258-15.645,24.887-18.924,9.073-5.807,18.147-6.753,27.052.065C66.862,178.093,70.53,181.165,68.262,186.673Z" transform="translate(0.048 50.53)" fill="#26381c"/>
      <path id="Path_9781" data-name="Path 9781" d="M63.372,270.693c-1.646-3.889-.117-7.038,2.126-10.175,5.185-7.285,4.576-12.962-1.983-19-9.89-9.073-13.8-26.429-8.231-38.782,1.905-4.2-.467-7.777-.285-11.562a10.486,10.486,0,0,1,8.451-3.163c9.371,3.772,17.006,9.527,21.4,18.937,5.781,11.847,3.565,23.681,0,35.516-.752,5.3-3.37,9.838-5.911,14.388-1.62,2.346-3.59,4.42-5.392,6.611-1.944,1.763-1.867,3.616-.868,5.988,1.128,2.67,1.3,5.522-2.152,6.986-2.165.739-2.32-2.165-4.031-2.268Z" transform="translate(15.618 55.676)" fill="#26381c"/>
      <path id="Path_9782" data-name="Path 9782" d="M23.369,334.4c3.889-8.646,6.377-17.939,12.832-27.363,0,6.779-2.165,10.9-4.731,15.1-5.522,9.073-6.338,23.526,3.759,29.45a2.916,2.916,0,0,1,.57,2.592c-4.187,8.633-4.679,17.81-4.109,27.22.194,3.292,1.063,6.792-1.594,9.657l.13-.117c-5.651-4.368-6.986-10.94-7.583-17.252C21.412,360.586,17.5,347.365,23.369,334.4Z" transform="translate(5.99 90.944)" fill="#526047"/>
      <path id="Path_9783" data-name="Path 9783" d="M66.487,258.7c2.229-2.009,1.465-4.005,0-6.014-2.424-3.228-1.724-5.768,1.737-7.673,6.961,7.6,15.23,14.064,9.968,26.961-3.331,8.192-.687,11.666,5.7,13.584a4.485,4.485,0,0,1,3.6,3.305c-.311,1.944-1.789,2.955-3.2,4.005-4.368,2.061-7.777,5.34-11.316,8.568s-5.962,2.592-7.09-2.2a7.246,7.246,0,0,1,2-6.17c1.918-1.18,2.022-3.1,2.087-5.042,1.4-6.779-.933-12.962-3.007-19.184C68.561,265.373,64.012,262.2,66.487,258.7Z" transform="translate(19.269 72.571)" fill="#2e3e1d"/>
      <path id="Path_9784" data-name="Path 9784" d="M1.815,210.68c2.683,4.848,3.37,9.488-1.322,13.636Q.259,220.077,0,215.839c.143-1.115.285-2.229.415-3.357a2.774,2.774,0,0,1,1.4-1.8Z" transform="translate(0 62.402)" fill="#1f2d1c"/>
      <path id="Path_9785" data-name="Path 9785" d="M24.114,304.27c-.117,8.062,1.517,16.215-1.205,24.148C23.064,320.356,22.027,312.242,24.114,304.27Z" transform="translate(6.749 90.123)" fill="#526047"/>
      <path id="Path_9786" data-name="Path 9786" d="M66.977,256.24c.169,3.383,3.266,6.624.454,10.136q-2.009-5.768-4.031-11.536C66.524,250.317,65.176,257.355,66.977,256.24Z" transform="translate(18.779 75.028)" fill="#1f2d1c"/>
      <path id="Path_9787" data-name="Path 9787" d="M226.581,163.623c-.156.817,0,1.867-.518,2.437-9.073,11.018-7.622,21.53,1.387,31.744-4.29,1.594-6.053-1.957-8.36-4.213s-3.889-1.828-5.276.817c-2.191,4.29-4.485,8.516-6.986,12.638-2.2,3.642-1.011,5.107,3.085,4.977,2.592-.091,5.185.181,6.961,2.4a4.342,4.342,0,0,1-.985,5.638c-10.966,1.828-18.7,9.877-28.14,14.66a9.241,9.241,0,0,1-3.4,1.037c-5.016,1.115-6.727-2.424-8.659-5.937-2.1-3.824-4.692-7.09-9.838-4.537-3.305.778-6.6,1.7-10.033.739-3.305-1.944-8.373-3.629-6.235-8.348,2.385-5.288,7.92-5.574,13.234-4.394a37.317,37.317,0,0,1,13.714,4.226c5,2.813,9.151,1.815,12.962-2.113,7.868-8.049,12.469-18.147,17.654-27.907,1.8-3.37,0-5.9-2.774-7.959s-6.3-2.852-7.686-6.39c.13-1.97,1.465-2.774,3.137-3.279,2.592-.518,4.951.493,7.323,1.491,7.362,3.085,9.073,2.2,11.368-5.431.778-2.67.415-5.7,2.476-8C226.412,156.377,227.436,159.073,226.581,163.623Z" transform="translate(44.155 46.646)" fill="#2d3723"/>
      <path id="Path_9788" data-name="Path 9788" d="M213.14,131.622c3.6,13.753,9.566,26.805,12.353,40.8.8,2.657,1.983,5.366-1.063,7.479-4.3-1.141-5.042-5.042-6.261-8.412a231.086,231.086,0,0,1-7.5-24.317c-2.022-4.511-3.2-9.333-5-13.921-4.213-4.109-3.409-11.212-8.775-14.634-2.074-1.05-3.668-2.8-5.729-3.889a40.946,40.946,0,0,0-14.09-7.207,5.509,5.509,0,0,1-2.294-2.592c-5.587-10.3-14.6-17.1-23.733-23.733a27.362,27.362,0,0,1-4.005-6.092,7.777,7.777,0,0,1-.493-3.733c3.085-7.686,6.636-1.3,10.02-.363,7.349,5.781,13.545,12.755,19.935,19.508,4.8,5.068,9.8,9.514,17.563,7.777,3.526.194,6.274-1.828,9.216-3.318a4.005,4.005,0,0,1,2.385.467c4.122,6.222-.467,8.425-4.9,10.72a11.666,11.666,0,0,1-7.388-.272,15.554,15.554,0,0,1,6.312,3.539C209.031,113.812,213.257,121.382,213.14,131.622Z" transform="translate(43.39 20.033)" fill="#2c3e1d"/>
      <path id="Path_9789" data-name="Path 9789" d="M187.926,98.1c3.487-1.776,7.466-3.279,5.081-8.555,1.957-1.867,3.889-1.115,5.82,0,4.07,2.592,2.994,10.071,9.747,10.046-8.01,7.038-4.77,17.188-7.142,25.781-2.813-8.5-6.624-16.267-15.1-20.622C185.762,102.317,185.788,99.958,187.926,98.1Z" transform="translate(55.097 26.188)" fill="#58733a"/>
      <path id="Path_9790" data-name="Path 9790" d="M201.43,204.51c3.889.285,1.231,8.97,5.392,5.859s10.564-6.883,9.825-14.258c-.1-1.1-.531-2.022.285-2.955,2.463,1.789,4.614,3.616,8.062,1.3,2.878-1.957,7.375-4.329,9.54-.506,1.944,3.422-2.968,5.068-5.3,7.155-3.266,1.063-6.157,2.424-5.185,6.74-1.841,4.29-8.348,4.329-8.9,9.8-3.124,2.307-5.755-.428-8.607-.855-2.437-1.672-6.2,2.074-8.088-1.944-.583-2.178-.454-4.135,1.62-5.535C201.845,208.113,201.495,206.286,201.43,204.51Z" transform="translate(58.69 56.842)" fill="#5c6f55"/>
      <path id="Path_9791" data-name="Path 9791" d="M210.277,155.475c2.255-1.944,1.037-4.692,1.633-7.025,1.594,5.846,3.889,11.666,1.854,17.849-1.128-2.2-.428-6.792-5.314-4.057-6.17,1.828-11.381.143-15.865-4.29a3.474,3.474,0,0,1,0-2.528C198.456,150.459,204.367,154.348,210.277,155.475Z" transform="translate(56.972 43.97)" fill="#485732"/>
      <path id="Path_9792" data-name="Path 9792" d="M218.844,206.175c-4.1-.791-3.707-4.29-2.592-6.4,1.944-3.772,5.185-1.867,7.868-.337-.13,1.879-3.4,4.666,1.491,5.068C223.666,206.357,221.125,205.735,218.844,206.175Z" transform="translate(63.83 58.521)" fill="#768a71"/>
      <path id="Path_9793" data-name="Path 9793" d="M30.067,492.675c-.557-1.076-1.128-2.139-1.7-3.215-.337-8.075,1.439-15.1,9.527-18.937,2.891-3.253-1.737-4.342-1.931-6.7.972-2.424,8.542.843,4.809-5.625-1.3-5.042-1.724-10.058.337-15.023,1.141-2.4,2.45-4.692,3.785-7a13.351,13.351,0,0,1,14.543-5.055c.933.622-.169-.324.791.285,2.657,1.646,5.353,3.228,5.366,6.909,1.983-1.789,3.966-3.2,7.012-2.994s6.248.156,7.92,3.539c1.555,3.02,0,6.481,1.5,9.579,2.592,3.189,5.937,5.522,8.8,8.425a9.307,9.307,0,0,1,1.128,2.2c7.583,9,11.29,18.821,6.688,30.474-.376,3.565-3.085,5.95-4.537,8.957-2.592,3.046-5.82,2.592-9.281,2.346-10.434-.817-12.21.791-12.69,10.8a10.94,10.94,0,0,1-1.841,3.4c-2.035,2.178-3.6,5.561-7.531,3.059-1.128-1.737-.946-3.811-1.4-5.729-1.024-4.368-4.861-4.342-8.14-4.6-3.889-.311-4.3,3.046-4.822,5.794-1.3,6.6,1.646,12.806,2.035,19.339,1.426,23.772.156,47.687,2.955,71.291a104.227,104.227,0,0,1-2.165,37.978c-.752,3.046-1.18,6.17-3.889,8.231-6.883-.518-7.129-6.935-9.9-11.121,5.664-11.666,2.165-24.109,3.24-36.164,3.733-17.55-1.374-35-.285-52.638.557-8.944,1.776-18.147-1.3-27.052-3.422-4.433-1.879-9.631-2.242-14.543-.324-4.614.739-9.708-4.122-12.884a4.783,4.783,0,0,1-1.3-1.957Z" transform="translate(8.391 127.541)" fill="#1d231a"/>
      <path id="Path_9794" data-name="Path 9794" d="M204.866,45.306c-3.655,2.307-3.889,6.611-5.664,11.381-.959-7.479-1.737-13.545-2.5-19.611,1.439.272,2.592,3.474,3.681,1.711,2.1-3.318-2.955-2.826-3.565-4.99,6.481-1.672,8.775-9.41,15.775-10.745C215.326,32.227,205.125,37.114,204.866,45.306Z" transform="translate(58.261 6.827)" fill="#8d937d"/>
      <path id="Path_9795" data-name="Path 9795" d="M208.954,515.52c1.18,7.09-4.6,12.456-4.783,19.21-2.942,2.748-3.889,7.5-8.581,8.516A67.156,67.156,0,0,1,208.954,515.52Z" transform="translate(57.933 152.694)" fill="#69784e"/>
      <path id="Path_9796" data-name="Path 9796" d="M194.928,548.054c-7.375-.726-11.238,5.353-16.578,8.581h.078c.972-3.746,1.3-7.777,4.926-10.279,3.889,1.3,3.6-2.592,4.822-4.2,2.592-3.539,5.392-4.731,9.281-2.281C197.339,542.856,193.127,544.515,194.928,548.054Z" transform="translate(52.826 159.526)" fill="#676d41"/>
      <path id="Path_9797" data-name="Path 9797" d="M140.042,138.818c-17.395,5.988-35.075,4.459-52.651,1.568-5.716-.946-11.121-1.439-16.63.311,7.129-5.431,10.616-13.092,14.258-21.089,8.425-18.665,30.6-28.866,50.059-24.135a50.553,50.553,0,0,0,8.2.648c2.346.454,4.627,1.3,7.077.907,4.835,1.789,2.385,8.257,6.714,10.37,5.34,6.481,3.331,12.793-.57,18.795a58.03,58.03,0,0,0-4.951,7.855C148.661,137.975,144.371,138.442,140.042,138.818Z" transform="translate(20.959 27.938)" fill="#223618"/>
      <path id="Path_9798" data-name="Path 9798" d="M133.514,142.479c.181-3.215,2.009-5.392,3.889-7.959,3.642-4.913,6.351-10.6,1.555-16.63-2.372-3.318-.48-8.749-5.353-10.823-2.722,1.024-4.874,0-6.74-1.918,0-1.089.557-2.411.117-3.24-3.085-5.651,2.528-9.462,2.865-14.349l2.372.506c.531-6.87-2.1-13.558-1.154-20.454,1.011-6.222,4.368-3.163,7.311-1.854a10.24,10.24,0,0,1,2.748,4.342c1.1,5.444,1.517,10.992,2.346,16.475a17.978,17.978,0,0,0,1.594,10.46,5.7,5.7,0,0,1-.22,2.385c-3.37,5.742-4.8,1.4-6.818-1.918a39.637,39.637,0,0,0,4.64,7.777c2.891,7.777,7.583,14.582,12.392,21.283,2.152,2.994,4.407,5.95,4.848,9.812,0,2.216-.4,4.226-2.592,5.327-6.961-7.868-13.364-6.351-19.443,1.1-.48.6-1.5.674-2.333.817a2.165,2.165,0,0,1-2.022-1.141Z" transform="translate(37.338 18.91)" fill="#3f4c39"/>
      <path id="Path_9799" data-name="Path 9799" d="M114.377,33.94,116.97,35.4c3.344,3.889-.454,5.561-2.7,6.986-4.29,2.722-3.811,5.561-1.491,9.255a26.274,26.274,0,0,0,15.127,11.666c3.448,1.05,7.4,1.478,9.073,5.5a2.981,2.981,0,0,1-.674,2.242c-14.725-1.089-25.185-8.672-32.094-22.632C99.6,54.29,99.756,60.771,96.93,65.943a4.77,4.77,0,0,1-.506,1.555c-.493.635-1.063.441-1.076-.389,0-1.841-.778-3.889,1.517-5.107-1.4-2.061-1.62-4.07.272-5.975C98.486,45.295,106.794,39.915,114.377,33.94Z" transform="translate(28.204 10.053)" fill="#575d50"/>
      <path id="Path_9800" data-name="Path 9800" d="M126.953,69.328a4.472,4.472,0,0,0-.091-1.659c1.3-8.814-1.983-18,2.229-26.572,2.359-2.229,4.2-.752,5.768,1.011,3.772,4.264,5.185,25.379,2.139,30.849-1.685,2.216-3.487-1.193-5.185.1-.6.817-1.167.83-1.7,0C129.636,71.338,128.884,69.821,126.953,69.328Z" transform="translate(37.573 11.839)" fill="#222d1b"/>
      <path id="Path_9801" data-name="Path 9801" d="M129.652,65.45h1.7c1.154,7.349,4.213,14.686.181,22.035C126.709,80.564,128.68,72.968,129.652,65.45Z" transform="translate(38.037 19.386)" fill="#182214"/>
      <path id="Path_9802" data-name="Path 9802" d="M133.737,40.418c-5.068-7.233-11.666-6.662-18.717-3.668.635-3.889,5.068-3.889,6.727-6.624,4.485-1.97,8.672-.881,12.78,1.231a14.66,14.66,0,0,1,4.913,3.707,10.2,10.2,0,0,1,1.3,2.113c.544,2.761,2.2,5.5.246,8.335C136.783,46.406,135.9,42.5,133.737,40.418Z" transform="translate(34.068 8.617)" fill="#656844"/>
      <path id="Path_9803" data-name="Path 9803" d="M129.753,35.521c.311-2.968.907-5.962-.363-8.866.065-1.452.13-2.9.207-4.355,2.592.065,5.055.415,6.481,3.059a2.048,2.048,0,0,1,1.141,1.815c-2.1,3.616,1.529,8.451-2.463,11.666Z" transform="translate(38.325 6.605)" fill="#3c4524"/>
      <path id="Path_9804" data-name="Path 9804" d="M133.754,37.819c1.3-3.889-4.109-8.529,1.3-11.964,5.729-.791,2.359,5.664,5.509,6.935l-.091-.091c0,7.388,3.305,7.959,8.71,4.368,1.789-1.18,3.2-3.124,5.742-2.7-2.126,6.325-6.688,8.555-13.04,7.777a2.592,2.592,0,0,0-3.344,2.592c-4.213-.506-2.45-5.185-4.835-6.961Z" transform="translate(39.274 7.639)" fill="#73775f"/>
      <path id="Path_9805" data-name="Path 9805" d="M212.792,209l8.516,3.552c-2.2,8.581,6.7,11.912,8.9,18.717A65.03,65.03,0,0,0,247.453,258.9c6.909,6.481,4.057,17.123,9.384,24.5.246.363-.817,2.437-1.491,2.592-4.938,1.024-4.614,10.486-11.977,7.414-3.435,3.253-6.675,1.815-9.864-.428-2.268-2.385-1.607-5.185-1.1-9.073-2.826,2.592-5.664,5.185-8.762,3.02-6.844-4.835-14.258-9.346-16.164-18.6a10.186,10.186,0,0,1-.454-2.333c0-2.839-1.711-5.288-1.841-8.088-2.178-6.118-4.213-12.3-8.8-17.213-3.552-3.889-7.531-6.818-12.962-7.453-2.489-.285-5.185-.415-6.183-3.513-.83-5.548,2.761-9.073,5.807-12.9,6.092-3.707,11.925-8.3,19.832-6.157,3.344,2.463,5.405,7.388,10.849,5.768,1.452-2.424-2.048-3.266-1.711-5.288A3.267,3.267,0,0,1,212.792,209Z" transform="translate(52.461 61.905)" fill="#213123"/>
      <path id="Path_9806" data-name="Path 9806" d="M207.23,254.19c1.931,7.855,8.853,11.666,14.051,16.669,4.42,4.3,5.185-1.789,7.272-3.6,1.374-1.193,1.763-4.264,4.187-3.279s.713,3.357.337,5.12c-.661,3.02-1.387,6.027-2.087,9.073,3.966,4.316,10.37,2.8,14.79,6.157,3.4,2.592,7.1,4.64,2.372,9.151-3.15-1.465-5.872-4.524-9.968-2.592,8.1,4.187,8.062,13.053,11.6,19.832-8.4-5.431-17.862-9.67-22.411-19.443-1.53-3.292-4.77-3.474-7.777-4.77-1.089,5.392-3.474,10.6,2.32,14.725,1.413,1.011,2.242,2.813.687,4.433-2.333,2.424-3.318-.065-4.64-1.413-1.5-1.542-2.878-4.459-5.418-2.592-2.994,2.165.907,3.772,1.218,5.742-5.587,2.061-7.777-2.139-10.37-5.6-1.089-2.255-1.568-4.731-2.592-7.025-1.465-2.852-3.953-3.578-6.948-3.642-3.461-.065-7.025-.765-8.088-4.576-1.3-4.511,2.942-5.314,5.651-6.974.959-.583,1.776-1.3,2.748-1.905,7.777-2.528,12.7-6.611,10.253-15.943a6.274,6.274,0,0,1,2.813-7.544Z" transform="translate(54.951 75.29)" fill="#354731"/>
      <path id="Path_9807" data-name="Path 9807" d="M239.551,288.5c1.737-4.9-.972-7.466-5.042-8.879-4.99-1.75-10.11-3.15-15.217-4.55-2.139-.583-4.381-.778-4.731-3.772,3.318-1.529,5.25,1.5,7.777,1.892l9.89,1.918c3.2,1.815,6.481,3.565,9.579,5.483,2.165,1.3,4.9,2.865,4.187,5.794C245.2,289.833,241.949,288.42,239.551,288.5Z" transform="translate(63.551 80.23)" fill="#576e40"/>
      <path id="Path_9808" data-name="Path 9808" d="M177.48,484.035c-1.387,5.185-6.248-.3-8.373,2.7,2.359,2.787,2.709,5.107-1.711,5.768-3.694.557-6.662-1.3-9.073-3.889-6.662-6.961-14.608-9.333-23.967-7.311-6.17,1.3-8.114-.765-5.353-6.637,2.592-6.222-4.07-8.464-5.587-12.962a7.44,7.44,0,0,1-.169-2.4c1.024-8.477,5.444-16.228,3.409-25.561-.959-4.381,3.02-9.76,2.113-15.165V397.086a6.987,6.987,0,0,1,1.815-5.392c5.755-1.3,6.092,2.061,6.3,6.6.441,9.449-.454,18.989,1.594,28.322,1.361,12.43.311,24.861-.181,34.129-.22-6.312.933-7.777,6.17-4.718,1.413.843,2.307,2.592,4.277,2.294,3.72-2.5,3.889-6.948,5.768-10.37,3.266-8.555,4.835-17.2,2.074-26.235a10.525,10.525,0,0,1,.622-8.944c1.685-2.5,4.744-2.592,7.038-4.109l1.141-.259c10.188,5,14.349,15.658,21.556,23.448,3.059,3.292,6.364,9.4-2.592,11.16-4.005.791-3.124,4.031-3.292,6.727,1.18,8.892-2.748,15.852-8.438,22.126-5.5-4.576-7.777-12.288-7.4-24.952-.855,2.476-2.657,4.783-1.3,6.948,2.852,4.64.3,7.959-1.841,11.666-3.811,6.675-3.189,8.166,4.018,11.445C170.1,478.915,174.538,480.315,177.48,484.035Z" transform="translate(36.496 115.934)" fill="#29321d"/>
      <path id="Path_9809" data-name="Path 9809" d="M159.93,397.956c1.05-4.77,4.537-7.66,8.1-10.486C170.131,393.86,166.657,398.345,159.93,397.956Z" transform="translate(47.37 114.766)" fill="#436322"/>
      <path id="Path_9810" data-name="Path 9810" d="M194.507,310l-3.2,4.148c-2.657,5.937-10.37,7.155-12.625,13.416-1.633,2.294-4.757,1.918-6.662,3.733a39.155,39.155,0,0,1-3.889,2.45c-2.787,1.905-5.626,3.552-9.073,1.3a2.981,2.981,0,0,1,0-3.4c3.383-3.733-.091-6.883-.907-10.24-.752-3.046-.454-6.222-1.3-9.268a10.642,10.642,0,0,1,.428-3.552c1.568-3.889,3.979-6.714,8.594-6.274,3.811.363,5.509-1.763,6.481-4.951,3.759-12.288,7.933-14.932,20.571-13.053,1.944.3,3.824,1.218,5.872.674a8.271,8.271,0,0,1,2.592.078c3.292,1.205,5.314,3.124,3.889,6.961L203.3,296.8C204.229,303.722,200.237,307.4,194.507,310Z" transform="translate(46.455 84.048)" fill="#8d9d8a"/>
      <path id="Path_9811" data-name="Path 9811" d="M185.9,307l8.944-13.143c6.3,2,9.89,6.805,13.325,12.106-1,.4-1.724.92-1.944.752-8.3-6.027-8.257-6.027-9.747,4.537a25.921,25.921,0,0,1-1.3,4.926c-.7,1.983.7,5.327-2.333,5.729-3.383.441-2.139-4.044-4.887-5.794v9.566h-1.3Z" transform="translate(55.062 87.04)" fill="#33471b"/>
      <path id="Path_9812" data-name="Path 9812" d="M177.178,331.652c2.32-.894,4.42-4.537,7.1-.531.726,2.528-4.926,3.552-1.581,6.7-.48,2.865-.959,5.742-1.452,8.607l-5.185-3.694c-2.216-1.918-6.974-.143-7.207-4.938C168.494,331.51,171.643,329.993,177.178,331.652Z" transform="translate(50.006 97.531)" fill="#c0be9a"/>
      <path id="Path_9813" data-name="Path 9813" d="M195.556,292.27c-1.374-2.229-2.126-5.055-5.366-5.444,3.15-6.481,7.5-3.539,11.731-1.491q1.037,3.279,2.035,6.559c-1.218,1.18-.169,4.666-3.616,3.526Z" transform="translate(56.333 83.782)" fill="#6c806b"/>
      <path id="Path_9814" data-name="Path 9814" d="M198,293.356l3.616-3.526c2.424,2.774,4.187,6.377,8.464,6.87,1.867,1.361,4.614,2.735,0,4.083C206.023,298.4,200.994,297.529,198,293.356Z" transform="translate(58.646 85.846)" fill="#8d9d8a"/>
      <path id="Path_9815" data-name="Path 9815" d="M168.377,382.918c-4.938,8.788-12.806,15.8-15.645,25.924-2.307,0-2.916-1.607-2.929-3.357-.156-18.911,2.268-37.59,4.109-54.142-1.7,9.449-2.333,21.271-3.253,33.014-.713,9.073-1.97,18.147-.48,27.22a4.576,4.576,0,0,1-2.242,4.355c-4.926.324-5.574-4.018-7.375-6.935-1.931-3.15-2.9-6.792-4.861-9.942a7.777,7.777,0,0,0-.8-1.439c-1.555-1.905-.765-6.481-5.418-4.939a10.94,10.94,0,0,1-.8-8.529c5.535-9.177,2.839-20.571,7.777-29.955-2.592,2.9-2.592,6.6-3.176,10.24-.493,3.292.985,7.777-4.135,9.009a5.405,5.405,0,0,1-2.061-1.581c-2.1-2.7-2.152-5.872-2.139-9.073a37.058,37.058,0,0,1,7.181-22.722c3.733-4.1,7.712-7.907,12.962-9.981a46.213,46.213,0,0,0,7.777-2.592c4.135-1.167,7.777.791,11.666,1.62a10.032,10.032,0,0,1,6.2,6.053,50.862,50.862,0,0,1,3.889,15.347c2.139,8.749-1.465,16.423-4.55,24.174C167.639,377.02,168.688,380.105,168.377,382.918Z" transform="translate(37.005 96.894)" fill="#395610"/>
      <path id="Path_9816" data-name="Path 9816" d="M159.854,370.561c-1.7-8.788,4.938-16.591,3.007-25.405-.493-3.137-.078-5.276,3.889-3.59v1.75c-.272,9.073.817,18.289-3.577,26.818C162.123,372.116,161.423,374.242,159.854,370.561Z" transform="translate(47.265 100.994)" fill="#738c5c"/>
      <path id="Path_9817" data-name="Path 9817" d="M178.181,477.119c-2.022,3.889,2.061,4.718,3.474,6.9.169,4.342-3.215,3.953-5.872,4.2-4.213.4-8.425.894-12.664.959a10.24,10.24,0,0,1-4.861-1.776c-5.107-4.679-11.355-5.846-17.991-5.833-7.207.493-12.055,8.49-20.091,6.325-4.264-1.063-8.646-1.944-10.836-6.481,2.722-6.261,6.831-11.873,7.777-19.015a4.627,4.627,0,0,1,6.753-3.215c2.424,1.089,1.944-.8,2.592-1.75a6.325,6.325,0,0,1,5.405-2.709,4.511,4.511,0,0,1,3.422,1.776c1.724,2.4-2.32,2.074-1.387,4.537,5.276-1.854,10.771-3.668,16.851-1.465,5.055,1.815,9.994,2.787,13.169,8,1.581,2.592,4.692,5.185,8.555,4.057,1.8-.531.726-2.385.687-3.681C176.159,470.327,184.908,469.549,178.181,477.119Z" transform="translate(32.386 134.685)" fill="#1f2416"/>
      <path id="Path_9818" data-name="Path 9818" d="M167.164,348.653c-2.385,0-3.435,1.465-3.889,3.59-1.879-4.589-3.889-9.151-4.472-14.154,2.592-3.889,3.292-7.622-.57-11.147a2.592,2.592,0,0,1,.4-2.255c3.552.635,5.82-2.178,8.736-3.266a5,5,0,0,0,.817.156,5.677,5.677,0,0,1,4.407,1.737,8.075,8.075,0,0,1-2.281-4.226c1.892-2.981,4.692-1.892,7.311-1.646,3.111.687,8.464,0,3.681,5.69-3.253,3.889-2.839,7.933-.972,12.145.091,1.3.933,2.592-.233,3.889-5.185-7.881-5.664.687-8.127,2.294-4.135,0-.609-5.392-4.718-5.781-2.268,3.344-3.033,6.74.117,10.3C167.32,346.8,167.242,347.746,167.164,348.653Z" transform="translate(46.838 93.907)" fill="#6b6b3f"/>
      <path id="Path_9819" data-name="Path 9819" d="M41.933,444.268c-2.307,4.977-.817,10.136-.674,15.23-2.592,5.029-2.709,5.094-6.637,2.968a8.246,8.246,0,0,0-.156-1.3c-1.491-11.3.583-22.385,2.139-33.507a1.374,1.374,0,0,1,2.255-.078C40.935,432.926,42.789,438.344,41.933,444.268Z" transform="translate(10.057 126.485)" fill="#c5c9cc"/>
      <path id="Path_9820" data-name="Path 9820" d="M38.448,461.4c-3.344,5.055-9.19,9.073-6.027,16.695.726,1.737-1.75,2.32-3.5,2.242C23.827,470.979,26.5,465.69,38.448,461.4Z" transform="translate(7.839 136.664)" fill="#5a5e5f"/>
      <path id="Path_9821" data-name="Path 9821" d="M34.8,455.048c3.642,2.191,4.2-2.476,6.637-2.968.648.907,1.3,1.789,1.957,2.722.985,1.491,3.435,2.592,1.542,4.913-1.672,2.009-3.474,1.154-5.107-.233a7.531,7.531,0,0,0-5.353-2.022C32.763,456.409,33.152,455.645,34.8,455.048Z" transform="translate(9.882 133.904)" fill="#5a6043"/>
      <path id="Path_9822" data-name="Path 9822" d="M93.419,289.772l4.005-1.711c4.614-2.139,7.466,1.154,10.551,3.526,4.1,3.124,6.662,7.777,10.836,10.823,5.509,3.694,5.574-1.3,6.248-4.226,2.385-10.37,2.294-10.6,12.2-9.747,4.861.428,5.988-1.076,5.34-5.638-1.218-8.71-4.2-17.136-4.355-26.015,0-2.981-1.3-6.364,2.346-8.373,6.7.713,4.122,7.1,6.481,10.486,1.1,5.742,1.18,11.666,3.176,17.252.493,3.033,1.192,6.04,1.633,9.073,4.109,8.244,4.226,17.732,9.657,25.924,3.344,5.042,3.292,13.027-1.3,19.171-2.787,14.79-13.117,28.387-7.012,44.589.83,2.178.078,4.5,0,6.74a13.363,13.363,0,0,1-.065,3.383c-.635,2.229,2.216,5.716-1.439,6.611-3.889.946-5.392-2.528-6.481-5.483-2.242-6.2-4.614-12.418-3.539-19.274a11.212,11.212,0,0,1-1.737,3.072,116.65,116.65,0,0,1-9.333,7.427,15.8,15.8,0,0,0-3.889,2.528c-2.761,3.15-5.885,5.418-10.37,4.407-3.565-.985-6.766.933-10.175,1.3-13.727.855-27.453-.207-41.141.7-5.418-.4-10.94,1.607-16.293-.635-7.777-2.722-13.8-7.285-16.851-15.165a6.157,6.157,0,0,0-.065-1.62c1.231-1.53,4.433-.376,4.653-3.007,1.3-15.165,15-17.887,24.628-24.705,2.424-1.724,5.911-1.115,4.77-6.857-1.568-7.894,5.885-7.336,10.37-5.975,6.961,2.1,11.445-.557,15.8-5.185,2.8-2.955,2.592-5.755-1.685-5.392-8.788.765-14.634-4.264-20.869-8.879.3-4.809,4.031-4.951,7.466-5.5,7.142-2.45,14.258-4.874,22.632-5.664C97.787,294.425,93.782,293.349,93.419,289.772Z" transform="translate(9.434 73.578)" fill="#1f281b"/>
      <path id="Path_9823" data-name="Path 9823" d="M49.562,369.567c6.3.467,2.968-6.014,6.818-8.7,2.916,5.185,5.185,12.5,13.675,9.242,1.594,1.3,4.109-.363,5.431,1.75-1.3,4.874-5.885,3.344-10.37,5.185,23.215,4.938,32.91,22.4,41.556,40.869a4.161,4.161,0,0,1-2.748,3.889c-6.585-.739-8.153-6.546-10.694-11.057-5.885-10.486-13.169-19.261-24.835-23.539-7.414-2.722-8.97-2.165-10.875,5.47-3.707,14.893-7.985,29.657-11.666,44.55-.959,3.889-1.465,7.881-4.239,11.018-2.139,2.074-2.891-.7-4.29-1.3a3.435,3.435,0,0,0-1.3.22c.454-3.318,1.633-6.74,1.218-9.955-.791-6.312,5.314-11.5.92-19.132-2.385-4.174,3.331-11.808,6-17.667,1.776.972,1.776,2.67,1.789,4.355a19.443,19.443,0,0,1,.156-4.005c2.5-7.855,4.951-15.71,3.344-24.135C49.472,374.311,49.523,371.939,49.562,369.567Z" transform="translate(10.672 106.888)" fill="#505c44"/>
      <path id="Path_9824" data-name="Path 9824" d="M47.714,373.07A14.388,14.388,0,0,1,50.306,386.6c-2.826,7.518-4.252,15.49-8.516,22.787.207-4.187.4-8.36.609-12.534Z" transform="translate(12.378 110.501)" fill="#667957"/>
      <path id="Path_9825" data-name="Path 9825" d="M45.237,363.917c-1.05-4.083,3.448-7.648,1.128-11.847,3.59,3.72,8.114-.506,11.912,1.413l-9.929,11.964Z" transform="translate(13.351 104.281)" fill="#434f2f"/>
      <path id="Path_9826" data-name="Path 9826" d="M71.5,250.437q2.813-6.675,5.664-13.325c8.827-5.185,12.327-13.558,14.116-23.1.441-2.32,1.218-5.094,4.692-4.861,3.889,5.276,7.064,10.875,7.92,17.525-2.216,5.638-1.62,12.806-8.581,15.891-.946.778-2.787-4.718-3.707,1.568a319.231,319.231,0,0,0-3.642,47.389,6.481,6.481,0,0,1-4.705,5.716c-9.527-5.768-10.37-7.349-7.492-17.175,1.892-6.312,4.524-11.834-3.111-16.851C68.514,260.431,70.692,254.805,71.5,250.437Z" transform="translate(20.793 61.946)" fill="#6b7c5c"/>
      <path id="Path_9827" data-name="Path 9827" d="M60.63,192.814c7.194-3.033,9.242-11.355,15.645-15.2,5.535,2.372-.117,5.185.35,7.777,5.509-1.3,11.316.3,16.851-3.1,3.228-1.97,5.314,2.994,7.375,5.535a8.037,8.037,0,0,1,1.555,1.763c.752,1.374,1.957,2.592,2.009,4.264-1.439,5.587-3.759,10.577-9.073,13.623-7.66-1-11.666-8.749-18.224-10.071,3.5,3.189,10.992,2.8,11.912,10.37-2.32,3.889-5.625,3.72-9.242,2.32C75.614,201.888,68.6,196.82,60.63,192.814Z" transform="translate(17.958 52.607)" fill="#5b6f48"/>
      <path id="Path_9828" data-name="Path 9828" d="M75.45,203.527c2.592-1.828,6.261-.778,8.542-3.331,4.77-2.255,6.105,3.72,9.8,4.057,2.035,1.594,3.305,3.539,2.813,6.261a3.318,3.318,0,0,1-2.761,2.061c-1.3,4.485-3.552,8.9-3.889,13.467-.648,9.359-6.118,12.806-14.362,13.817C77.705,227.74,81.088,215.647,75.45,203.527Z" transform="translate(22.348 59.147)" fill="#3f4e34"/>
      <path id="Path_9829" data-name="Path 9829" d="M72.317,241c1.089,2.074,3.992,3.655,1.659,6.624-.972,1.3-1.192,3.085,0,3.889,10.9,7.012,4.381,15.865,2.735,24.2-.272,1.361-.48,2.735-.778,4.459,11.666-5.561,2.852,6.792,7.259,7.57v1.076c-6.74,1.141-10.668-.078-9.164-8.516.83-4.653.907-9.436,2.242-14.1.635-2.242,5.535-8.464-3.409-5.742-1.167.363-2.035-1.089-1.854-2.229.739-4.6-2.735-7.868-3.577-11.938Z" transform="translate(19.972 71.383)" fill="#4a5e35"/>
      <path id="Path_9830" data-name="Path 9830" d="M150.212,363.922c-.156,6.092-4.848,1.892-7.142,3.15a5.6,5.6,0,0,1-2.657-7.168c1.646-4.8.609-9.281-.674-13.843-2.255-14.336-6.014-28.516-4.1-43.228,2.32-5.327,1.918-10.694.259-16.073-2.592-13.04,1.867-25.509,3.046-38.225a30.307,30.307,0,0,1,.415-4.964c.156-2.592,4.135-4.524,1.3-7.622a6.3,6.3,0,0,1-1.841-3.889c.389-4.083,5-4.8,6.4-8.062,1.439-2.152,2.592-4.472,3.889-6.766,3.305-3.215,5.263-8.425,11.277-7.583l9.916-1.854c6.935-.635,5.185,3.474,3.24,6.688-3.824,6.287-4.848,12.962-5.509,20.208-.791,8.723.843,15.4,9.359,19.287,1.62.739,2.152,2.592,2.424,4.29.48,4.1-.985,7.855-2.113,11.666-5.885,19.6-9.164,39.78-13.519,59.729-.441,1.983-1.374,3.889,1.3,4.977,2.592,4.9.285,11.458,5.846,15.723,1.491,1.154-2.139,3.785-4.485,4.731-3.046.259-5.872,1.568-9.009,1.581C153.116,356.676,150.588,359.294,150.212,363.922Z" transform="translate(40.017 61.528)" fill="#7d907b"/>
      <path id="Path_9831" data-name="Path 9831" d="M171.478,258.1c-.454-1.8-1.154-3.526-3.318-1.944-2.709,1.97-4.5.726-5.185-1.685-1.167-3.889-.1-8.97-6.481-9.618-1.568-.156-.467-2.074.156-3.409,4.692-10.136,1.8-22.735,10.266-31.679l-2.735-1.724c7.375-3.6,10.149,1.905,12.651,6.857,1.3,2.489,1.037,5.729,5.185,4.213,1.737,3.629-1.128,6.287-2,9.371s-3.137,5.988-1.711,9.54C179.722,245.984,180.162,253.593,171.478,258.1Z" transform="translate(46.114 61.279)" fill="#677963"/>
      <path id="Path_9832" data-name="Path 9832" d="M174.861,171.082c-8.944,6.377-11.445,15.684-11.886,25.924-.117,2.9-.272,5.548,2.489,7.57,3.5,2.592,2.113,5.924.92,9.073-4.589-1.5-8.814-1.167-12.456,2.592.505,3.111,4.589,3.02,5.444,5.846L149,230.94a3.305,3.305,0,0,1-3.435.622c-.959-.648-2.178-1.646-1.854-2.592,3.1-9.307-1.115-16.954-5.366-24.628-.531-4.744,1.789-7.6,6.066-9.138,11.925,3.642,15.321-2.761,15.7-13.13.1-2.994,3.513-5.185,2.592-8.607-1.141-1.478-2.8-2.787-1.867-5.042,2.074-2.955,4.99-3.292,8.231-2.722C171.815,166.675,174.213,167.893,174.861,171.082Z" transform="translate(40.955 49.012)" fill="#47472d"/>
      <path id="Path_9833" data-name="Path 9833" d="M189.9,167.5a5.859,5.859,0,0,1,5.548,1.3l-3.681,1.633-23.967-.194c.972-4.239,4.316-3.422,7.3-3.435C180.049,166.738,184.91,168.8,189.9,167.5Z" transform="translate(49.701 49.39)" fill="#47472d"/>
      <path id="Path_9834" data-name="Path 9834" d="M204.451,135.371a4.653,4.653,0,0,0-2.7,4.005c-2.592,15.749-12.158,26.274-26.455,35.451,7.635-14.258,3.59-28.516,4.874-42.1.959-10.058,3.344-19.923,3.707-30.007l5.6,3.072c3.085,3.889,1.983,8.075,1.063,12.223-2.359,10.694-4.316,21.465-6.818,33.351,6.935-8.166,6.779-17.862,10.564-25.924,1.076-2.294.726-5.988,5.068-3.979Z" transform="translate(51.923 30.425)" fill="#64843e"/>
      <path id="Path_9835" data-name="Path 9835" d="M198.054,120.709a55.737,55.737,0,0,0-5.911,15.969c-1.3,8.633-5.185,14.466-12.443,20.182.091-18.341,6.909-34.647,8.477-51.77C195.358,107.825,192.947,116.639,198.054,120.709Z" transform="translate(53.226 31.127)" fill="#4d6c2a"/>
      <path id="Path_9836" data-name="Path 9836" d="M153.326,129.731c.22-8.4,4.239-15.865,6.092-23.876,1.568-6.753,8.036-9.073,14.569-9.955l2.126,1.892c-8.775,2-14.258,6.325-15.645,16.28-.894,6.481-2.735,13.429-6.922,19.119a2.294,2.294,0,0,1-.22-3.461Z" transform="translate(45.212 28.405)" fill="#465138"/>
      <path id="Path_9837" data-name="Path 9837" d="M141.163,46.62c3.357,3.189,4.99,7.414,6.6,11.549,2.878,7.362,5.431,14.854,10.214,21.3-2.592.752-3.539-6.105-6.986-1.53-2.372,1.659-3.642.441-4.563-1.737-.389-2.255-.544-4.537-.765-6.818a19.352,19.352,0,0,0-4.42-12.547c-1.8-2.385-4.433-4.679-3.007-8.322a4.252,4.252,0,0,1,2.929-1.892Z" transform="translate(40.823 13.809)" fill="#656844"/>
      <path id="Path_9838" data-name="Path 9838" d="M193.951,88.046l-1.607,3.694c-.117,7.388-5.288,4.55-9.073,4.472a79.571,79.571,0,0,1,2.242-7.972c1.05-2.761,1.789-6.662,5.392-6.611C194.728,81.682,190.606,86.932,193.951,88.046Z" transform="translate(54.283 24.178)" fill="#6c7e5c"/>
      <path id="Path_9839" data-name="Path 9839" d="M190.12,95.89c-.117,2.346.6,4.874-1.594,6.7l-9.916-6.7Z" transform="translate(52.903 28.402)" fill="#7c9367"/>
      <path id="Path_9840" data-name="Path 9840" d="M198.321,213.011l1.97-1.568c2.009-1.374,3.266-5.185,6.688-2.152,0,.648.117,1.3.181,1.944-.609,2.592,2.994,4.109,1.594,6.844-3.344,2.968-6.481.376-9.721-.311C194.043,216.731,199.617,214.437,198.321,213.011Z" transform="translate(58.326 61.652)" fill="#3e4c39"/>
      <path id="Path_9841" data-name="Path 9841" d="M171.55,170.8c6.714-9.657,14.116-18.147,27.518-16.941l.078,1.815c-9.6.713-16.851,5.483-22.476,13.2l7.207,2a15.386,15.386,0,0,1-12.327-.065Z" transform="translate(50.812 45.538)" fill="#7e866d"/>
      <path id="Path_9842" data-name="Path 9842" d="M42.748,633.815a141.972,141.972,0,0,0,2.891-55.3c-2.126-15.736-.117-31.99-1.426-47.894-.726-8.723,1.374-17.9-2.865-26.313-.583-1.154-.246-2.8-.246-4.213,0-4.9.259-11.731,4.187-12.962,4.342-1.361,10.149,1.685,15.256,3.072,2.45.674,1.218,2.761.946,4.29-.454,2.489-1.05,4.964-1.581,7.44,2.942,4.239.752,8.866.674,13.221a50.058,50.058,0,0,0,4.951,23.876c4.148,12.288,13.571,21.685,18.406,33.636,2.216,5.47,5.042,10.681,5.962,15.088-1.192-14.129,5.988-27.285,11.666-40.843,4.64-7.777,5.716-7.855,10.564-1,.972,1.361,2.048,2.592,2.942,4.057,5.768,11.238,14.764,20.182,21.737,30.577,2.178,3.254,5.055,6.481,1.918,10.8-2.592,1.1-4.99,2.1-4.744,5.95.674,10.2-2.67,19.689-6.39,28.944-2.852,7.1-6.948,13.688-8.827,21.232A7.168,7.168,0,0,1,113,653.142c-6.857,1.529-14.828-.8-20.169,5.911-16,3.292-29.579-2.735-42.58-11.031C47.661,643.368,40.752,640.958,42.748,633.815Z" transform="translate(12.146 144.186)" fill="#1d1a19"/>
      <path id="Path_9843" data-name="Path 9843" d="M92.384,425.037l1.478-3.889c-2.411-4.3-1.685-8.2,1.5-11.808,4.8-1.555,7.038,1.491,9.073,5,.791,4.718,1.555,9.462,2.463,14.116-.583.92.337-.337,0,.765-.233.868-.1.83.143-.156,1.62-6.274-.376-11.9-3.215-17.356-4.187-6.922-3.318-14.712-3.889-22.269-.259-1.763-1.3-3.331-1.3-5.185-.752-5.988.506-11.9.583-17.836,1.97-4.316-.674-9.864,3.616-13.571,4.964,1.646,6.857-2.968,10.033-4.951,7.972-.065,12.392,6.559,18.276,10.227a135.138,135.138,0,0,0,12.4,7.246,11.815,11.815,0,0,0,.156,1.361c2.929,4.524,1.931,7.453-3.474,8.594a6.131,6.131,0,0,1-3.772-1.361c-1.737-1.685-2.748-3.992-4.666-5.535a16.709,16.709,0,0,0-4.174-2.865c-8.892-4.718-11-3.707-13.247,6.286a7.246,7.246,0,0,1-2.1,3.59c-2.489,1.776-1.426,4.005-.765,6.157a16.967,16.967,0,0,1,.207,10.9,8.477,8.477,0,0,0,0,5.872c5.366,13.688,5.794,28.322,6.351,42.567.246,6.274,3.228,12.158,1.659,18.756-1.18,4.913,4.264,7.051,7.349,9.618,6.611,5.5,8.8,12.768,9.942,20.739,1.491,3.513.233,5.95-2.8,7.686-4.459-.907,2.178-5.327-1.737-5.535s-4.381,3.409-3.966,6.261c1.037,7.194-2.592,11.2-8.62,13.753a15.554,15.554,0,0,1-15.282-.428c-4.057-2.592-7.7-1.633-11.575-2.009-3.552-3.007-.726-5.185,1.3-6.9a61.084,61.084,0,0,0,8.84-9.4c1.128-1.387,1.3.285.609-.609-.091-.117-.324,0-.583.389-4.627,6.961-12.871,11.2-14.673,20.4-.454,2.268-3.461,4.031-5.924.765,4.524-12.068-1.607-21.789-6.961-31.692,7.479-2.346,9.864-7.673,10.007-15.2.1-6.611,4.135-12.962,2.009-19.832.531-5.185,2.087-10.655-4.044-13.908C83.946,428.316,88.936,427.447,92.384,425.037Z" transform="translate(22.407 103.046)" fill="#42291b"/>
      <path id="Path_9844" data-name="Path 9844" d="M61.11,497.006c1.517-3.889-5.288-9.54,2.891-12.158,4.874-1.555,9.4-3.681,14.4-.635,1.685,1.024,3.24-.143,4.757-.843,2.592-3.24,5.975-3.889,9.838-3.02a9.955,9.955,0,0,1,4.627,2.515c10.37,9.423,13.143,21.672,11.484,34.712-1.128,8.879-1.1,18.86-9.981,24.887-6.986-2.035-6.611-8.516-8.049-13.766-1.3-4.511-.778-9.592-5.587-14.323-1.3,11.277-.441,21.426-.7,31.523-.091,3.992.272,8.01-.92,11.9-.7,2.294-1.97,4.368-4.537,4.563s-3.992-1.828-5.055-3.889a23.227,23.227,0,0,1-2.048-7.388c-.622-4.718.752-10.37-6.481-11.666-1.4-.246-1.97-2.748-2.1-4.459C62.626,522.308,58.219,509.89,61.11,497.006Z" transform="translate(17.738 142.173)" fill="#293f17"/>
      <path id="Path_9845" data-name="Path 9845" d="M62.246,493.12a327.209,327.209,0,0,1,5.185,36.527c.156,1.646.376,3.279.557,4.887,3.889.791,3.383-3.759,6.844-4.316a4.33,4.33,0,0,1,.843,1.607c.985,6.481-.817,13.13,1.646,19.443.765,1.983,0,5.613,2.955,5.353,3.357-.311,2.463-3.889,2.489-6.338.1-11.406,0-22.813.091-34.207,0-4.239-.454-10.37,3.6-11.186,5.185-.959,5.276,5.781,6.7,9.423,2.981,7.544,1.53,16.449,6.792,23.409,2.722,2.865-2.592,5.522-.22,8.374-3.383,9.877-8.944,18.86-10.732,29.488-1.167,6.9-.324,13.4-.7,20.661-7.155-20.48-19.65-37.94-29.514-56.825-2.528-14.971-5.327-29.942,1.763-44.524Z" transform="translate(16.602 146.059)" fill="#37551a"/>
      <path id="Path_9846" data-name="Path 9846" d="M52.794,437.582c.609-2.774-1.931-6.779,2.1-8.127s4.913,2.683,6.714,5.055c3.4,4.5,5.975,5.185,8.166-1.231,3.357-9.838,9.566-17.123,20.234-19.6,10.37.946,10.966,2.489,5.82,14.025a7.116,7.116,0,0,1-2.515,7.609c-5.185,1.543-7.946,5.664-11.044,9.618-3.24,4.161-6.844,5.885-10.37,0-1.581-4.381-6.04-2.8-7.777-2.048C57.785,445.67,55.283,442.067,52.794,437.582Z" transform="translate(15.567 122.53)" fill="#273617"/>
      <path id="Path_9847" data-name="Path 9847" d="M85.874,431.266l3.811-6.766c4.161,3.176,2.2,7.336,1.529,11.069-1.3,7-3.137,13.792-3.681,21.037-.583,7.531-7.349,2.592-11.277,3.448a.972.972,0,0,0-.441-1.05,10.447,10.447,0,0,1-2.2-9.346C76.126,442.478,78.641,435.3,85.874,431.266Z" transform="translate(21.71 125.734)" fill="#ccced0"/>
      <path id="Path_9848" data-name="Path 9848" d="M61.131,494.51c-2.424,14.764-1.491,29.67-1.763,44.524-5.937-12.716-6.611-25.924-3.331-39.378Z" transform="translate(16.019 146.471)" fill="#2a3519"/>
      <path id="Path_9849" data-name="Path 9849" d="M86.82,489.252c-2.7,2.229-6.287-.726-8.97,1.555-.117-3.409,3.215-5.107,4.018-8.062,1.3.337,3.4.907,3.72-.635,2.592-12.288,16.28-16.189,20.609-27.22-1.815,5.833-4.407,11.212-9.2,15.178-2.411,2-5,3.681-5.625,7.038C92.3,482.084,91.6,486.439,86.82,489.252Z" transform="translate(23.058 134.736)" fill="#5f6445"/>
      <path id="Path_9850" data-name="Path 9850" d="M87.817,429.751l-9.734,17.3c-2.592,3.629-6.688,2.476-10.188,3.215-3.085-3.292,1.128-6.675-.143-9.994,3.759,2,6.274,1.892,9.073-2.346C79.3,434.313,81.4,428.675,87.817,429.751Z" transform="translate(19.768 127.25)" fill="#475533"/>
      <path id="Path_9851" data-name="Path 9851" d="M67.63,446.285c2.515-3.889,6.481-2.981,10.188-3.215-.1,3.474-.22,6.961-.324,10.434C73.294,452.429,70.935,448.682,67.63,446.285Z" transform="translate(20.032 131.235)" fill="#73825c"/>
      <path id="Path_9852" data-name="Path 9852" d="M39.114,429.22c.8,3.811-.635,8.723,4.964,10.2q-1.517,2.411-3.007,4.822c-1.3-5.625-5.094-10.668-4.018-16.851C39.218,426.33,38.337,428.663,39.114,429.22Z" transform="translate(10.919 126.51)" fill="#28391d"/>
      <path id="Path_9853" data-name="Path 9853" d="M66.39,447.5l6.948,5.068C66.442,455.835,66.442,455.835,66.39,447.5Z" transform="translate(19.664 132.547)" fill="#d4ddd7"/>
      <path id="Path_9854" data-name="Path 9854" d="M142.441,50.041,140.172,52.3c-5.47-.531-6.144-4.018-5.185-8.477L133.51,35.07c3.383,1.089,2.592,5.094,4.835,6.961Z" transform="translate(39.545 10.388)" fill="#3c4524"/>
      <path id="Path_9855" data-name="Path 9855" d="M145.531,633.716c-5.794,2.735-10.5,8.49-18.147,6.261-.972-.272-2.592,1.737-3.889,2.683-3.629,2.165-6.585,5.95-11.588,4.809a28.992,28.992,0,0,1-6.7-3.578c-2.891-3.565-.83-5.664,2.268-7.323,2.8-1.5,5.988-1.62,9.073-2.268,9.164-1.97,10.81-3.979,9.449-13.169-.972-6.6,3.539-11.212,5.574-16.591,1.776-4.718,3.487-9.229,3.681-12.806,0-.3.648-1.491.091-.622-1.892,2.916,1.737,9.073-3.409,9.073s-6.662-5.185-6.053-10.227c.259-.817,1.05-1.581,1.024-2.307-.544-20.117,15.088-32.288,23.435-48.024,4.239-2.126,4.809-6.351,5.859-10.37a7.944,7.944,0,0,1,1.439-2.061c5.807-3.1,5.068,1.167,5.431,4.653,1.115,10.577-1.581,20.856-3.15,31.109a344.39,344.39,0,0,0-3.552,42.93C155.9,616.826,151.118,625.252,145.531,633.716Z" transform="translate(30.751 155.835)" fill="#423c3a"/>
      <path id="Path_9856" data-name="Path 9856" d="M99.958,324.2c2.916-17.641,4.135-35.477,6.131-53.144,1.594-14.258-2.346-24.433-9.255-35.114-2.359-5.613-6.157-10.616-7.194-16.851.609-.648,1.218-1.3,1.841-1.931,5.068,1.063,4.576,6.481,7.272,9.346,2.152,3.889,3.422,8.27,7.181,11.471,3.889-6.066,1.685-11.355-.3-16.643-.843-2.592.091-6-3.487-7.3a10.239,10.239,0,0,1-1.879-1.452c-3.6-3.889-2.9-7.466,1.011-10.694,3.616-2.178,7.635-3.487,11.432-5.25,11.808-5.5,11.808-5.5,10.37-17.421.557-1.18,1.3-2.139,2.774-1.5,3.694,3.15,5.47,7.4,6.831,11.886,2.709,2.139,4.433,4.757,4.109,8.373-.311,5.353-3.344,10.071-3.629,15.425-1.491,3.046-1.167,6.779-3.526,9.5-5.664,5.185-2.709,12.7-5.016,19-3.072,8.4-4.861,17.719-2.45,27,.091.389.168.778.246,1.167q3.305,18.354,6.585,36.7c.985,5.522-.48,8.373-6.662,6.079a9.915,9.915,0,0,0-3.292-.778c-3.37,0-9.89-4.64-7,4.861.531,1.763-1.167,4.239-1.97,6.325-1.011,2.592-1.672,6.6-4.174,7.012C102.511,330.9,101.63,326.662,99.958,324.2Z" transform="translate(26.551 52.579)" fill="#412e1f"/>
      <path id="Path_9857" data-name="Path 9857" d="M97.9,191.009l-5.9-5.82c-5.509,10.875-17.382-3.046-22.852,7.972-.169-6.6,5.366-9.073,4.6-14.128,12.314-10.823,21.75-7.4,25.587,9.255C100.428,190.024,100.4,191.2,97.9,191.009Z" transform="translate(20.481 51.185)" fill="#8a9c83"/>
      <path id="Path_9858" data-name="Path 9858" d="M124.21,129.873l9.851-5.353.557.6a5.47,5.47,0,0,1,1.05,3.007c-.428,20.985-2.878,41.906-2.216,62.943.1,3.344,1.841,8.464-4.42,9.073-1.3-11.186-.143-22.411-.544-33.61-.337-9.281.791-18.587-.635-27.855C125.921,136.082,130.859,130.586,124.21,129.873Z" transform="translate(36.79 36.882)" fill="#3f4c39"/>
      <path id="Path_9859" data-name="Path 9859" d="M124.782,197.978c-.635-2.916-1.3-5.833-1.892-8.749,6.662-1.076,2.411-7.194,4.744-10.279,2.787,1.3-.363,5.457,3.046,6.481a9.735,9.735,0,0,1,3.383.648c2.748,1.3,4.731,4.135,8.762,2.165,2.048-1.011,5.366,0,7.518,2.113a1.983,1.983,0,0,1,0,2.2c-2.852,2.022-6.3,3.681-5.185,8.218-3.707,2.178-4.861-2.592-7.712-2.8-3.461-2.268-6.3.428-9.4,1.167a4.472,4.472,0,0,1-3.266-1.167Z" transform="translate(36.399 53.004)" fill="#6a3e1e"/>
      <path id="Path_9860" data-name="Path 9860" d="M128.754,200.3c-3.046-2.229-1.011-5.781-2.2-8.477q.311-28.153.609-56.333c2.955,5.924,1.3,12.223,1.387,18.341.337,14.414.246,28.84.337,43.254a2.281,2.281,0,0,1-.13,3.215Z" transform="translate(37.483 40.132)" fill="#1d2822"/>
      <path id="Path_9861" data-name="Path 9861" d="M94.682,193.149l-3.422-2.242a11.381,11.381,0,0,1,12.132-2.968c5.548-1.3,9.073-5.781,13.325-9,1.724-.544,2.372.518,2.826,1.892-1.633,8.71-8.9,10.564-15.749,12.962C100.67,194.886,97.547,195.794,94.682,193.149Z" transform="translate(27.031 52.959)" fill="#27301e"/>
      <path id="Path_9862" data-name="Path 9862" d="M103.392,188.225,91.26,191.194a7.246,7.246,0,0,0,.091-1.672c.48-.907.959-1.828,1.439-2.722,3.344-1.828,2.761-5.924,5.185-8.97C101.63,180.422,99.322,186.177,103.392,188.225Z" transform="translate(27.031 52.672)" fill="#8c987e"/>
      <path id="Path_9863" data-name="Path 9863" d="M113,182.082l-2.1-2.152c2.476-2.865,4.64-7.557,8.71-1.555-.648.687-1.3,1.387-1.918,2.074A3.616,3.616,0,0,1,113,182.082Z" transform="translate(32.848 51.972)" fill="#52584f"/>
      <path id="Path_9864" data-name="Path 9864" d="M131.89,97.19c5.638,1.7,6.883,5.574,5.353,10.823C128.766,107.728,136.051,99.614,131.89,97.19Z" transform="translate(39.065 28.787)" fill="#b7c1b5"/>
      <path id="Path_9865" data-name="Path 9865" d="M148.368,188.286c4.2-14.038,6.572-28.205,3.02-42.774-.531-2.191-.739-4.692-1.957-6.481-2.592-3.889-4.939-7.168,1.3-9.812.467-.194-.207-3.1-.35-4.731.428-1.62.843-3.24,1.3-4.848,1.4.713,1.167,3.215,3.344,3.085.078,1.154.143,2.307.22,3.461-2.515,8.075-.648,16.215.467,24.122,1.4,9.994,2.113,19.689-1.478,29.281-2.294,6.105,1.581,4.1,4.446,3.539,1.426,1.646,3.487,1.231,5.3,1.646-1.905,4.718-5.677,7.012-10.434,8.049C150.96,192.434,148.277,191.929,148.368,188.286Z" transform="translate(43.469 35.437)" fill="#5a653f"/>
      <path id="Path_9866" data-name="Path 9866" d="M136.157,43c.441,3.629,3.681,5.535,5.185,8.477,2.592,5.288,7.531,9.216,8.827,15.243.389,1.776,2.255,3.642-.35,5.185-5.327.363-5.055-5.34-8.1-7.492-2.942,5.185,3.292,9.384,1.4,14.414l.1-.117-5.185-1.633-1.841-3.5c1.931-9.6-3.474-18.419-3.111-27.881.078-2-1.659-3.448-3.487-4.381,0-1.167-.117-2.333-.169-3.5Z" transform="translate(38.336 11.202)" fill="#838b76"/>
      <path id="Path_9867" data-name="Path 9867" d="M175.169,231.8c3.889-1.465,6.883-4.2,9.942-6.844,18.147.35,25.133,12.508,29.242,27.7-1.633,1.439-4.887,1.452-4.99,4.161-.35,10.1-4.9,6.04-9.683,3.292-3.292-1.892-5.353-4.874-7.777-7.881-2.761,4.005-.855,7.051.687,10.033,3.059,5.937,3.681,12.508,4.848,18.9.48,2.592.57,6.027-3.889,6.027-7.259-7.777-7.181-18.9-11.99-26.352,4.446,6.014,4.64,14.258,1.931,21.763-2.9,8.036-5.185,16.177-7.272,24.407-1.465,5.25-.92,11.666-10.37,9.371-3.746-.881-4.459,6.183-6.053,9.916,0,1.076-.13,2.152-.181,3.228-1.218.726-2.735,2.307-3.565,2.009-2.748-1.011-1.024-3.292-.726-5.042a695.413,695.413,0,0,1,16.488-73.741C176.621,246.36,178.125,239.438,175.169,231.8Z" transform="translate(45.767 66.632)" fill="#485b46"/>
      <path id="Path_9868" data-name="Path 9868" d="M186.661,281.808c1.672-8.646-.441-16.682-4.77-23.993a12.793,12.793,0,0,1-1.944-9.67c.57-2.7,1.3-6.17,4.666-6.364s2.994,3.292,3.707,5.651c1.542,5.185,7.777,5.185,10.94,9.851-2.411-8.062-3.344-14.323,7.635-9.6.506,2.878,2.385,5.5,1.646,8.607a5.418,5.418,0,0,0-2.528,4.161c-1.011,5.288-3.889,6.6-8.5,3.552-1.581-1.05-3.253-3.2-5.25-1.854-2.217,1.491-1.037,4.148-.855,6.338a36.293,36.293,0,0,0,5.3,15.062,5.374,5.374,0,0,0-.557.661c-1.633,2.709-7.492,1.594-6.714,5.185.907,4.2,5.7,2.994,8.814,2.372,5.081-1.011,5.561,2.592,6.792,5.69-3.694,2.229-8.153-1.5-11.744,1.491h0c-5.431.246-10.136-2.139-12.016-6.766C179.532,287.926,182.682,284.193,186.661,281.808Z" transform="translate(53.226 71.612)" fill="#536654"/>
      <path id="Path_9869" data-name="Path 9869" d="M194.918,280.417c-3.824.324-5.768-1.854-6.481-5.185a55.889,55.889,0,0,1-1.789-11.666c0-2.774-2.592-6.7.959-8.322,3.889-1.737,7.686,0,10.266,3.642a9.073,9.073,0,0,0,1.7,1.517c4.926-.13-1.594-11.031,7.181-7.285a9.463,9.463,0,0,0,.415,1.581c0,2.242-.13,4.485,0,6.714C207.945,275.349,207.971,275.349,194.918,280.417Z" transform="translate(55.014 74.741)" fill="#748777"/>
      <path id="Path_9870" data-name="Path 9870" d="M223.139,247.07c5.561,5.094,4.99,12.884,9.812,19.08A18.237,18.237,0,0,1,223.139,247.07Z" transform="translate(66.028 73.181)" fill="#354731"/>
      <path id="Path_9871" data-name="Path 9871" d="M206.738,217.374c-1.581-2.035-5.405-3.552-1.594-6.844,1.646,1.439,3.383,2.787,4.926,4.342,1.128,1.141,2.761,2.916,1.4,4.226C209.5,221,208.579,217.413,206.738,217.374Z" transform="translate(60.277 62.358)" fill="#67765d"/>
      <path id="Path_9872" data-name="Path 9872" d="M134.349,396.852l-.467,5.185c-1.594,8.257-1.374,16.617-1.205,24.978-4.394,8.049-.83,17.006-2.865,25.315-3.8,5.185-6.948,1.115-10.24-.713A4.213,4.213,0,0,1,118.2,449.5c0-.843.661-1.867.441-2.437-3.02-7.609-.765-15,.635-22.45.181-.972-1.3-2.5-.713-3.2,3.889-4.809-.35-5.755-3.305-7.427a4.005,4.005,0,0,1-1.3-2.152,5.937,5.937,0,0,1,1.413-5.82,8.216,8.216,0,0,1,2.165-1.3c-3.979-4.809-.207-10.745-2.32-15.839-3.163-7.622-1.607-10.992,6.779-15.01a5.6,5.6,0,0,1,3.124,1.957C127.142,383.254,133.869,388.685,134.349,396.852Z" transform="translate(33.677 110.738)" fill="#bb916e"/>
      <path id="Path_9873" data-name="Path 9873" d="M158.452,417.951c-7.414-2.7-13.454-7.907-20.959-11.8.428,7.777.817,14.738,1.205,21.724-1.542,1.413.493,4.161-1.957,5.185a104.993,104.993,0,0,1-1.3-30.785c.376-3.305-1.737-3.707-3.215-5.185-5.185-5.794-9.307-12.21-10.849-20-.363-1.62-.894-3.266,1.011-4.355,3.889.363,4.031,3.889,5.185,6.481,1.374,2.968,2.878,1.3,4.472.544,6.87-7.129,3.616,4.044,6.727,3.72.557,8.788,1.62,17.33,10.992,21.621a22.722,22.722,0,0,1,3.357,2.4c.324.35.881.428.855.207a5.543,5.543,0,0,0-.622-1.167c-1.141-2.981-4.64-6.338,1.3-8,4.977,4.213,4.018,12.819,11.329,15.308C165.542,419.118,161.9,418.353,158.452,417.951Z" transform="translate(35.847 110.404)" fill="#43472d"/>
      <path id="Path_9874" data-name="Path 9874" d="M138.349,419.3c9.138,4.537,9.281,15.308,15.282,22.035-2.126,4.148-2.592,9.177-6.637,12.275-10.784-7.777-15.152-19.78-11.666-32.21C135.718,419.919,136.612,418.934,138.349,419.3Z" transform="translate(39.735 124.171)" fill="#465f32"/>
      <path id="Path_9875" data-name="Path 9875" d="M138.646,420.453c-2.592,9.708-4.018,19.158,4.031,27.376,1.892,1.957,3.085,4.6,4.614,6.922-6.027,3.37-5.068-4.809-9.916-4.835l-.674,15.3c-4.355-14.751-2.152-29.812-3.552-44.706.506-1.8.285-3.889,1.957-5.185Z" transform="translate(39.438 123.015)" fill="#6d7f66"/>
      <path id="Path_9876" data-name="Path 9876" d="M126.293,441.334c1.854-9.073-2.878-19.028,3.318-27.622a1.063,1.063,0,0,1,1.737.207c-1,3.655,3.889,8.749-2.67,11.16-.259.091-.324,1.8.078,2.372,7.038,9.994-2.4,17.576-3.772,26.313C120.382,449.085,122.573,445.132,126.293,441.334Z" transform="translate(36.25 122.433)" fill="#5e6434"/>
      <path id="Path_9877" data-name="Path 9877" d="M128.032,435.712c-.363,4.148-2.424,8.127-1.3,12.43v1.3c1.154,2.9,2.891,5.716,1.3,9.073-2.061,3.539-5.988,1.205-5.988,0,0-8.944-8.814-16.462-4.187-26.028C122,431.37,123.988,436.775,128.032,435.712Z" transform="translate(34.511 128.054)" fill="#926546"/>
      <path id="Path_9878" data-name="Path 9878" d="M124.16,455.94l.35-10.37c4.187,3.6,11.588,5.7,6.39,13.688l-3.279-.1C126.182,458.376,124.562,457.793,124.16,455.94Z" transform="translate(36.775 131.975)" fill="#4e603b"/>
      <path id="Path_9879" data-name="Path 9879" d="M156.2,427.021c-.506-5.185-.881-9.151-1.3-13.221" transform="translate(45.88 122.565)" fill="#d5d9d6"/>
      <path id="Path_9880" data-name="Path 9880" d="M146.46,419.294a3.811,3.811,0,0,1-3.4-1.75c-.428-1.672-3.305-2.852-1.037-5.068,2.048-3.746,1.089-7.777.985-11.666-.583-20.739,1.944-41.167,6.014-62.36,5.185,11.406-.454,22.126.091,32.755.6,11.432-4.718,22.7-1.192,34.271l.778,3.318c-4.174,3.474,2.165,5.548,1.154,8.594C149.35,419.086,148.495,420.227,146.46,419.294Z" transform="translate(41.812 100.247)" fill="#5e7923"/>
      <path id="Path_9881" data-name="Path 9881" d="M189.634,280.678a2.439,2.439,0,0,1-.091.842c-6.105,8.892-.765,13.053,6.727,16.345-.855,1.529-1.711,2.592-3.889,2.009-15.3-3.979-16.682-3.305-21.711,10.033a10.369,10.369,0,0,1-.091-8.723c-.518-8.218,1.633-15.554,5.185-23.137a25.924,25.924,0,0,0-.531-22.839c-1.3-2.7-3.6-5.185-1.776-9.618a110.578,110.578,0,0,1,16.176,35.088Z" transform="translate(50.253 72.742)" fill="#6c806b"/>
      <path id="Path_9882" data-name="Path 9882" d="M147.506,330.549c-3.526-4.3-6.066-7.7,2.67-9.073,4.822-.765,9.255-2.087,13.856.233-.428.661-.855,1.3-1.3,1.983v1.62c-.156,3.318-2.152,5.185-5.016,6.416C153.753,336.511,151.109,329.3,147.506,330.549Z" transform="translate(42.724 94.901)" fill="#566c4d"/>
      <path id="Path_9883" data-name="Path 9883" d="M173.872,288.48c0,2.916.065,5.82.091,8.723-2.592,2.515-.35,12.353-9.268,5.7-2.592-1.944-3.889,3.046-6.066,4.576,0-3.889-1.011-8.088,1.892-11.445,2.035-2.372,3.461-9.384,7.57-1.3,1.192,2.372,3.292,2.216,3.992-.765C172.524,292.1,172.291,290.009,173.872,288.48Z" transform="translate(46.934 85.446)" fill="#687a64"/>
      <path id="Path_9884" data-name="Path 9884" d="M168.212,318.62c3.889,2.281,5.95,5.82,7.972,11.847l-10.914-9.514Z" transform="translate(48.952 94.373)" fill="#44501a"/>
      <path id="Path_9885" data-name="Path 9885" d="M125.062,364.55c-1.024-4.977-2.424-9.929-2.968-14.958-.843-7.777-2.592-15.619,4.783-21.958,2.774-2.4,1.387-7,1.983-10.59.428-2.592-1.75-6.688,3.215-7.414,1.672,1.374,4.485,1.089,5.353,3.668,2.437,10.849,2.528,21.543-1.97,31.964-3.668,7.1-6.688,14.4-7.129,22.528C125.114,368.879,126.592,365.185,125.062,364.55Z" transform="translate(35.925 91.711)" fill="#b38d68"/>
      <path id="Path_9886" data-name="Path 9886" d="M130.079,357.48l3.266,3.24q.855,4.5,1.685,9.009c-6.831,1.776-10.72-4.252-15.943-6.481-5.483-2.346-9.877-7.233-14.738-10.992l3.4-1.465c2.152.518,4.6,0,7.142,2.592-.583-3.889-.583-7.077,1.452-9.7,2.359-2.178,3.37-5.055,3.953-10.188,3.305,11.9,3.15,22.632,9.786,31.666Z" transform="translate(30.908 98.781)" fill="#70533a"/>
      <path id="Path_9887" data-name="Path 9887" d="M124.325,375.218c5.3.3,5.379-3.253,5.185-7.012,2.45-4.381,1.141-9.229,1.633-13.856a15.879,15.879,0,0,1,3.137-8.594c1.205-1.5,2.67-3.461,4.874-1.905,1.763,1.231,3.487,2.592,1.815,5.561a45.6,45.6,0,0,0-6.235,25.043c.143,2.852-2.385,2.735-3.552,4.1-2.489,1.361-4.964,1.892-7.362-.233A2.592,2.592,0,0,1,124.325,375.218Z" transform="translate(36.585 101.678)" fill="#566a1d"/>
      <path id="Path_9888" data-name="Path 9888" d="M124.618,370.787c2.294-1.815,4.563-2.592,6.792.1l.078,9.994c-.583,2.592.959,5.535-1.478,8.633-5.185-3.889-6.248-9.618-7.22-15.308a3.15,3.15,0,0,1,1.828-3.422Z" transform="translate(36.356 109.337)" fill="#9b885f"/>
      <path id="Path_9889" data-name="Path 9889" d="M188.927,515.139c-1.1-4.226,2.515-5.988,4.472-8.62.92-1.05,1.75-.985,2.489.181l-1.828,5.029Z" transform="translate(55.898 149.808)" fill="#897756"/>
      <path id="Path_9890" data-name="Path 9890" d="M172.474,481.474c8.114.881,15.554,3.15,20.83,9.981-2.385,3.889-6.351,2.683-9.812,2.916s-6.688-.156-9.929.907c-4.2.843-8.049-1.037-12.081-1.581-6.662-4.627-2.152-7.907,1.387-11.316C165.759,479.076,169.155,480.631,172.474,481.474Z" transform="translate(46.816 142.281)" fill="#778670"/>
      <path id="Path_9891" data-name="Path 9891" d="M169.14,490.955c6.662-3.681,14.038-.13,20.882-2.035,6.922,1.478,12.456,5.833,18.6,8.944-3.409.428-5.716,1.75-5.327,5.807a13.454,13.454,0,0,1-1.607,8.01L199.2,511.5c1.879-13.662-.765-13.623-14.712-12.819-3.889.233-7.777.57-11.666.635-2.217-4.135.622-4.614,3.577-4.783,3.577-.207,7.181,0,10.6-.078C180.922,493.146,173.936,497.591,169.14,490.955Z" transform="translate(50.098 144.815)" fill="#5f6135"/>
      <path id="Path_9892" data-name="Path 9892" d="M174.689,482.369c-2.268,3.176-6.287-1.3-8.555,1.944-5.574.57-12.4,6.7-15.554-3.474,5.962-2.981,13.079.311,18.886-3.5C172.252,477.91,173.7,479.88,174.689,482.369Z" transform="translate(44.601 141.385)" fill="#303d2b"/>
      <path id="Path_9893" data-name="Path 9893" d="M170.7,519.533l-3.966,11.951a22.45,22.45,0,0,0-6.7,13.727h0c-1.789,3.448-1.776,7.777-5.366,10.37-5.6,9.371-9.968,19.443-17.525,27.648-4.109,4.459-4.938,10.512-4.653,16.669.1,2.035,2.178,6.481-3.435,5.276-6.027-.972-6.17-5.716-6.6-10.279-.583-7.362-5.95-12.379-10.24-17.136-6.183-6.87-10.642-14.608-15.425-22.281-.259-4.031-4.459-9.825,4.835-9.385,2.191.091,2.268-3.72,2.229-5.885a21.672,21.672,0,0,1,7.673-17.317c7.142-6.351,10.836-13.662,6.986-23.331a9.644,9.644,0,0,1,0-5.9c2.955-5.911,4.42-2.994,6.235,1.62-1.491-5.431-5.924-10.214-.57-15.01,3.629,0,7.051.233,9.786-3.279,2.592-3.318,6.675-3.824,10.771-3.448,3.668,4.2,3.266,8.542.467,12.962.117,2.683-8.775.415-3.279,6.04,7.92,8.646,7.777,9.462-4.031,13.766,6.986,6.481,14.906,10.849,21.076,17.265,1.75,1.815,3.616-.143,5.185-1.4C166.108,520.6,167.585,518.081,170.7,519.533Z" transform="translate(28.322 140.23)" fill="#2a3c13"/>
      <path id="Path_9894" data-name="Path 9894" d="M134.064,487.187c2.476-4.316,1.478-9.073,1.789-13.688,7.349-.843,14.051.1,18.652,6.8-1.8,3.759-.091,6.3,2.592,8.944,3.383,3.37,7.479,6.222,9.4,10.9.506,2.67-.855,5.029-1.3,7.544l-.622,6.727L161.8,519.6c-9.968,8.97-9.89,8.879-20.817-.622a64.439,64.439,0,0,0-10.525-7.077c-3.253-1.841-5.95-3.889-4.42-7.933s4.9-2.67,7.933-1.918a6.234,6.234,0,0,0,2.437-.454c.583-4.6-5.107-4.252-5.742-7.7,6.986-5.068,10.486,1.931,14.556,3.889C143.293,493.253,134.686,494.524,134.064,487.187Z" transform="translate(37.202 140.171)" fill="#384a22"/>
      <path id="Path_9895" data-name="Path 9895" d="M131.336,478.969l3.461,3.2-5.055,2.048c-5.9-8.775-9.462-19.08-19.573-24.952-4.1-2.385,1.763-8.685.207-11.588-6.092-11.381-.454-23.954-4.951-35.684-2.45-6.416-3.4-14.258-4.316-21-.868-6.481,1.3-13.843-1.128-20.934-.454-1.3,2.307-2.1,4.07-2.242,4.031,5.185,7.777,10.486,9.151,17.136,1.115,7.051-.259,14.971,7.311,19.728,1.1.687,1.128,2.592.3,3.889-1.672,1.452-1.3,3.383-1.18,5.185-.454,8.114,3.889,15.891.415,24.485-1.452,3.6,3.889,8.3,2.813,13.286h0c.6,8.568,7.129,15.891,5.185,25.055C128.005,477.18,130.209,478.23,131.336,478.969Z" transform="translate(29.599 108.946)" fill="#633a25"/>
      <path id="Path_9896" data-name="Path 9896" d="M127.389,480.946c-.583,5.587.48,11.031.868,16.851-1.037-1.646-2.074-3.305-3.163-4.925,0,0-.635.091-.713.272a10.139,10.139,0,0,0-.531,1.568c-.557.207-1.141,0-1.62.078-7.116,1.3-13.714,2.32-16.41-7.285-.583-2.048-5.094-1.711-7.894-1.193a24.382,24.382,0,0,1-10.02-.156l-3.137-1.646c1.867-3.889,1.3-8.762,4.55-12.132,9.981-4.6,18.354,3.694,27.79,3.474Z" transform="translate(25.108 139.503)" fill="#384029"/>
      <path id="Path_9897" data-name="Path 9897" d="M158.789,497.59c-5.185-2.592-8.244-7.609-12.366-11.381-3.889-3.565-3.59-6.909,2.67-7.479l3.448,1.7c3.889,6.792,10.862.22,15.554,3.474.6,1.789,1.607,4.161-1.581,3.889-4.757-.324-1.426,2.8-2.087,4.174-.285,2.372-2.489,3.344-3.668,5.055a2.8,2.8,0,0,1-1.97.57Z" transform="translate(42.614 141.797)" fill="#526746"/>
      <path id="Path_9898" data-name="Path 9898" d="M145.408,326.906c-3.4-1.141-6.209-3.889-10.11-3.681l-3.4-3.266c.207-6.7,6.053-14.349-3.4-19.443-2.424-1.3-1.53-3.966-1.931-6.105-1-5.444-.83-11.264-4.835-15.788a13.052,13.052,0,0,1,8.14-3.642,11.977,11.977,0,0,1,10.81,3.629,6.974,6.974,0,0,1,1.452,3.59,223.722,223.722,0,0,0,4.213,41.867C146.7,325.247,146.7,326.258,145.408,326.906Z" transform="translate(36.059 81.395)" fill="#2c3e18"/>
      <path id="Path_9899" data-name="Path 9899" d="M105.262,384.971l1.3,3.305c-1.218,7.661-2.178,15.308,2.359,22.359.22,1.918.57,3.953-2.592,3.292a15.788,15.788,0,0,0-6.688-5.055c-4.472-4.809-6.714-11.018-10.175-16.462a40.908,40.908,0,0,0-21.854-17.447l-5.327-1.75c12.314-2.774,23.1-1.724,28.97,11.588,2.229,1.089,6.014-2.126,6.935,2.411.739-2.592-.609-5.185.143-7.622a23.1,23.1,0,0,1-.117-5.185c4.446-7.064,4.342-14.388,1.3-21.88,2.5,1.4,4.679-5.185,7.324-.3-1.115,3.966,2.709,8.685-1.815,12.158C103.68,371.27,103.058,378.14,105.262,384.971Z" transform="translate(18.447 103.785)" fill="#373524"/>
      <path id="Path_9900" data-name="Path 9900" d="M130.2,286.981a10.914,10.914,0,0,1-8.3,1.4c-.143-3.292-.272-6.6-.4-9.89-1.3-11.031,4.55-20.869,5.327-31.575,1.789-3.02,4.239-5.042,7.933-5.055,8.386,3.565,9.618,6.481,3.215,12.223-5.548,4.977,2.074,10.629-2.294,14.945C142.255,277.583,135.294,281.99,130.2,286.981Z" transform="translate(35.933 71.638)" fill="#875c3e"/>
      <path id="Path_9901" data-name="Path 9901" d="M112.673,293.212c-3.266,1.154-2.968,4.161-6.4,4.407,1.763-4.239,3.305-8.127,5-11.925,1.413-3.176,4.874.881,6.481-1.724,2.592,1.931,4.614,4.394,4.731,7.635.233,6.74.065,13.506.065,22.1C117.236,306.757,110.314,302.752,112.673,293.212Z" transform="translate(31.477 84.11)" fill="#412e1f"/>
      <path id="Path_9902" data-name="Path 9902" d="M137.905,245.293l-7.1,4.744a99.95,99.95,0,0,1-10.486,13.74c-3.344-2.592,1.076-8.957-4.926-10.37h0c-3.992-6.014-.324-11.951.207-17.913A3.422,3.422,0,0,1,117.646,234c3.6.739,3.331,3.772,3.655,6.377.389,3.1,2.281,1.037,3.552,1.1,4.459.389,8.62-.078,11.808-3.707,3.344-2.424,6.481-5.625,11.186-2.942L147.6,239.2a9.242,9.242,0,0,1-9.7,6.092Z" transform="translate(33.633 69.255)" fill="#412e1f"/>
      <path id="Path_9903" data-name="Path 9903" d="M118.779,260.07c-.583-7.7,5.69-10.149,10.486-13.74-1.3,7.388.843,15.165-5.094,22.035-4.29,4.964,4.252,5.69,5.366,9.346-2.67,3.228-4.679-2.891-7.272-.544C119.867,271.722,119.168,265.928,118.779,260.07Z" transform="translate(35.17 72.962)" fill="#62472d"/>
      <path id="Path_9904" data-name="Path 9904" d="M115.564,341.39a18.147,18.147,0,0,0,4.783,13.753c-6.222-.635-9.566-4.109-13.377-6.611Z" transform="translate(31.684 101.118)" fill="#483219"/>
      <path id="Path_9905" data-name="Path 9905" d="M91.591,368.92c1.3,1.1,3.4,1.633,2.994,4.005-1.3,2.165-2.592,4.213-2.035,7.064.363,1.737-.454,3.357-2.839,3.02,0-3.578-4.77-.544-5.081-3.694C87.183,376.01,87.378,371.124,91.591,368.92Z" transform="translate(25.067 109.272)" fill="#957962"/>
      <path id="Path_9906" data-name="Path 9906" d="M92.332,235.951c-3.344,16.63-1.633,34.271-10.058,49.865-.181-9.462-1.218-19.028-.3-28.4s3.772-18.6,5.833-28.166C89.675,231.376,89.092,235.018,92.332,235.951Z" transform="translate(24.169 67.903)" fill="#8d9d7d"/>
      <path id="Path_9907" data-name="Path 9907" d="M95.986,190.273l8.71-1.763c3.8,4.524,1.737,8.114-1.828,11.471-3.007,2.878-2.813,5.742,0,8.607,1.3,4.381-.168,8.412-1.542,12.469a5.185,5.185,0,0,1-3.889,3.215c-2.942-2.839-3.176-7.025-5.185-10.37L89.4,208.342c-2-1-3.215-2.359-2.152-4.744C90.361,199.294,91.7,193.824,95.986,190.273Z" transform="translate(25.726 55.836)" fill="#798a65"/>
      <path id="Path_9908" data-name="Path 9908" d="M92.709,203.03c.713,1.581,1.426,3.163,2.152,4.744-5.185,2.5-4.614-5.574-8.84-4.887-4.5-5.924-11.925-7.777-17.421-12.288C77.907,192.415,85.308,197.69,92.709,203.03Z" transform="translate(20.319 56.455)" fill="#293c19"/>
      <path id="Path_9909" data-name="Path 9909" d="M133.575,244.05l9.721-6.04a26.145,26.145,0,0,1-1.568,14.245c-3.357,8.5.311,17.33-1.633,25.846-2.891,4.122,2.683,9.371-1.776,13.273-3.163-1.75-6.222-3.889-10.149-3.189,2.346-4.9,4.679-9.812,7.012-14.7-2.4-2.268-3.1,3.811-5.288.648-1.193-1.724-2.061-3.668.091-5.185,3.526-2.515,3.266-4.394-.1-7.025-1.97-1.53-1.3-4.161.324-6.118S134.275,245.4,133.575,244.05Z" transform="translate(37.963 70.497)" fill="#bb9170"/>
      <path id="Path_9910" data-name="Path 9910" d="M124.455,247.1l-6.831,3.889V238.614c-.583-1.426.233-2.074,1.4-2.592,2.048-.881,4.161,3.292,6.183-.1,2.463-2.916,5.677-4.977,8.347-7.648,4.666-4.031,9.773-7.155,16.047-7.881a3.8,3.8,0,0,1,2.191.933c.7,5.431-5.457,3.655-7.025,6.7a54.609,54.609,0,0,1-20.311,19.08Z" transform="translate(34.782 65.278)" fill="#2d2c13"/>
      <path id="Path_9911" data-name="Path 9911" d="M122.85,245.354A100.1,100.1,0,0,1,143.161,226.3l3.215,2.074c1.685,4.174-1.3,5.768-4.148,7.311s-5.937,3.033-7.272,6.4C131.794,246.456,128.138,248.932,122.85,245.354Z" transform="translate(36.387 67.029)" fill="#716747"/>
      <path id="Path_9912" data-name="Path 9912" d="M145.937,321.1c-3.889-7.777-4.887-14.258-.065-20.817C150.784,305.828,150.888,310.987,145.937,321.1Z" transform="translate(42.245 88.941)" fill="#61745f"/>
      <path id="Path_9913" data-name="Path 9913" d="M132.221,241.614c-1.3-4.835,3.4-5.6,5.625-7.868,1.905-1.944,4.977-2.748,5.794-5.846,4.226,3.565,2.1,6.235-1.3,8.736C138.339,236.947,135.384,239.488,132.221,241.614Z" transform="translate(39.097 67.503)" fill="#c1a181"/>
      <path id="Path_9914" data-name="Path 9914" d="M174.213,166.9H186.54l4.913.493c-7.038,3.655-15.114-1.3-22.113,2.7l-1.672.506-5.107-3.2Z" transform="translate(48.149 49.435)" fill="#263310"/>
      <path id="Path_9915" data-name="Path 9915" d="M150.755,222.58c-4.55,1.789-5.7,4.329-1.776,8a72.042,72.042,0,0,0-15.256,7.946c-4.031.363-7.6-2.709-7.116-5.276.946-5.185-2.774-6.027-5.263-8.231a3.409,3.409,0,0,1,.156-2.424c2.126-2.424,5.016-2.942,8-3.215,3.163.324,6.157-.7,10.175-1.3-5.924-2.126-7.544-7.388-10.771-11.16-2.1-2.437-.259-6.066,2.294-8.257s4.848-4.77,7.57-6.805c3.487.117,4.55,3.539,6.974,5.107C153.776,204.252,154.294,213.014,150.755,222.58Z" transform="translate(35.896 56.828)" fill="#ae7c54"/>
      <path id="Path_9916" data-name="Path 9916" d="M87.19,483.417c5.185-2.255,10.512-4.148,16.228-2.839,4.187.946,9.812,1.167,6.883,8.322a2.32,2.32,0,0,0,1.491,3.4c1.607.376,2.476-.959,3.383-2.035,1.568-1.867,1.05-6.092,4.083-5.807,4.031.376.959,5.755,3.889,7.518,6.481,15.127.117,26.17-11.29,35.632-3.707,3.085-2.074,7.336-2.294,11.121-.415,7.207-.415,6.844-8.036,7.492-4.9.428,1.4,5.638-2.216,7.246-1.828-2.826-3.642-5.651-5.535-8.607-2.839.648-2.592,3.189-3.253,5.107-3.059-2.877.4-5.574.22-8.373,7.285-15.49,11.082-31.109,3.668-47.881C92.569,489.574,89.108,487.15,87.19,483.417Z" transform="translate(25.825 142.217)" fill="#435931"/>
      <path id="Path_9917" data-name="Path 9917" d="M122.371,567.741c4.355,2.048,3.137,7.66,6.6,10.279,1,3.487,1.931,7.025,5.5,9.527,4.589-4.77-3.448-12.819,4.407-16.4a5.328,5.328,0,0,1,1.3,6.909c-4.8,8.581-1.685,19.935-9.683,27.415-.467.441,0,2.061.233,3.059,3.37,11.847.324,16.164-12.353,17.395-8.088.778-8.14.817-9.67,5.185-2.45,2.113-8.4,3.487-10.745,2.372-2.852-1.3-2.074-3.577-1.3-5.768.778-.337,2.152-.57,2.242-1.037,2.852-15.438,14.051-27.92,15.464-43.915.3-3.383,1.478-6.6.22-10.007-.92-2.489-1.426-5.185,1.063-7.025C118.56,563.541,120.1,567.08,122.371,567.741Z" transform="translate(28.415 167.357)" fill="#282625"/>
      <path id="Path_9918" data-name="Path 9918" d="M101.349,620.406l-20.739-.259c4.3-9.955,13.182-6.053,20.532-6.766,2.592,6.351,6.766,6.649,12.016,3.4a5.444,5.444,0,0,1,5.12,3.448Z" transform="translate(23.876 181.627)" fill="#3d332d"/>
      <path id="Path_9919" data-name="Path 9919" d="M110.1,388.21c-.739-6.377-8.412-9.955-6.948-17.213.363-.428,1.05-.881,1.024-1.3-.272-4.355-3.215-9.566,3.24-11.86,5.509-1.97,10.292.233,14.634,3.629,1.1.868,2.191,1.763,3.279,2.592-2.139,4.277-7.661,5.664-8.983,10.655,3.889-2.411,6.792-7.1,12.443-5.5.544.622,1.089,1.231,1.62,1.854V374.3l-1.828,3.422-1.957,4.044c-.493-.674-.972-1.361-1.465-2.048-3.6.078-4.718,3.292-6.857,5.288S114.157,390.672,110.1,388.21Z" transform="translate(30.498 105.77)" fill="#6f462d"/>
      <path id="Path_9920" data-name="Path 9920" d="M126.269,367.669l-14.5,9.955c-1.128-9.41.868-12.158,11.044-15.114C125.724,363.054,126.411,365.076,126.269,367.669Z" transform="translate(33.021 107.373)" fill="#8b6345"/>
      <path id="Path_9921" data-name="Path 9921" d="M99.826,396.56c4.977,8.335,4.018,17.188,2.592,26.637-3.889-1.672-4.783-4.252-4.226-7.673,1.115-5.677-1.711-11.484.531-17.136a1.931,1.931,0,0,1,1.1-1.828Z" transform="translate(28.977 117.459)" fill="#6b5d41"/>
      <path id="Path_9922" data-name="Path 9922" d="M98.732,401.953c-5.807-7.038-4.264-14.647-1.724-22.333.635,7.427-.752,15.191,3.733,21.958l-.661.687C99.484,402.8,99.043,402.666,98.732,401.953Z" transform="translate(28.061 112.441)" fill="#6b5d41"/>
      <path id="Path_9923" data-name="Path 9923" d="M98.275,396.85q.661.169,1.361.311c0,6.118,1.75,12.314-1.024,18.276-1.205-5.029-2.709-10.007-2.242-15.269C97.977,399.637,98.2,398.341,98.275,396.85Z" transform="translate(28.518 117.545)" fill="#af8f68"/>
      <path id="Path_9924" data-name="Path 9924" d="M95.969,381.774c-3.176-6.818-2.9-13.688-.3-20.584Q95.827,371.482,95.969,381.774Z" transform="translate(27.739 106.982)" fill="#6b5d41"/>
      <path id="Path_9925" data-name="Path 9925" d="M141.18,539.16c1.3-3.733,2.307-7.544,5.366-10.37C146.131,533.016,147.207,537.928,141.18,539.16Z" transform="translate(41.817 156.625)" fill="#605546"/>
      <path id="Path_9926" data-name="Path 9926" d="M117.914,240.965q-.972,9.514-1.931,19.028c-2.813-.428-4.511-1.465-4.381-4.913.493-14.1,6.2-27.376,6.546-41.478,0-1.413,1.3-2.476,3.072-1.426,4.1,7.557.389,14.828-.83,22.191a16.656,16.656,0,0,1-2.476,6.6Z" transform="translate(33.054 62.72)" fill="#2d2c13"/>
      <path id="Path_9927" data-name="Path 9927" d="M116.56,236.376c1.167-7.414,3.513-14.673,3.189-22.295,1.063-2.929,2.113-5.872,3.163-8.8a3.992,3.992,0,0,1,3.072,2.385c.778,4.2.35,8.1-2.852,11.3v1.8c1.763,2.826,1.024,5.742.376,8.659-1.426,2.592-.946,5.872-2.929,8.283C118.556,239.15,117.428,238.126,116.56,236.376Z" transform="translate(34.524 60.803)" fill="#828559"/>
      <path id="Path_9928" data-name="Path 9928" d="M103.391,212.529c-.726,4.187-4.018,3.37-6.818,3.539-.415-4.472,1.5-8.27,3.461-12.068a8.017,8.017,0,0,1,1.167.557C103.922,206.67,103.624,209.613,103.391,212.529Z" transform="translate(28.587 60.424)" fill="#ccc8c6"/>
      <path id="Path_9929" data-name="Path 9929" d="M122.99,210.479l-1.53-1.7c0-5.353,2.826-9.981,3.746-15.1l3.292-.22c3.331,4.044-1.3,7.207-1.192,10.888C126.347,206.72,125.737,209.351,122.99,210.479Z" transform="translate(35.976 57.302)" fill="#a4aa7c"/>
      <path id="Path_9930" data-name="Path 9930" d="M102.441,212.4c-1.439-2.463-3.772-4.679-2.191-7.972,5.431.518,4.848,4.1,3.966,7.777Z" transform="translate(29.537 60.551)" fill="#798a65"/>
      <path id="Path_9931" data-name="Path 9931" d="M159.038,189.582c-1.3,3.513-4.213,2.45-6.883,3.072-6.17,1.439-14.258.778-15.191,10.292-1.711,1.724-3.513,1.3-5.353.233l-3.37-.143c0-1.076.091-2.139.13-3.215,2.022-2.813,1.4-6.04,1.3-9.073-.83-19.948,1.581-39.793,1.918-59.7a19.093,19.093,0,0,1,1.374-4.8c.6,23.513-2.592,46.974-1.218,71.8,7.181-5.885,13.519-11.2,22.165-11.666Z" transform="translate(37.984 37.395)" fill="#5f6e4d"/>
      <path id="Path_9932" data-name="Path 9932" d="M124.5,204.856q1.672-5.185,3.37-10.37c2.45-5.185,5.781-6.105,10.123-2.061,3.15,4.964-1.62,5.483-4.109,7.207s-5.068,7-4.381,6.974c6.209-.259,2.916,11.666,10.771,8.062,2.048-.959,3.526-.233,3.889,1.672s-.7,4.913-2.5,4.718c-4.239-.441-8.023,3.02-12.262,1.063C123.128,217.715,122.7,211.61,124.5,204.856Z" transform="translate(36.602 56.249)" fill="#94603b"/>
      <path id="Path_9933" data-name="Path 9933" d="M130.85,185.653l5.353-.233c3.422,2.152,9.242-3.033,11.186,3.655-1.983,2.916-7.777-5.587-7.959,2.592C135.866,190.683,133.753,187.611,130.85,185.653Z" transform="translate(38.757 54.92)" fill="#94603b"/>
      <path id="Path_9934" data-name="Path 9934" d="M119.062,441.514c-4.342-6.351-5.016-13.13-3.552-20.661,1.076-5.561-6.948-11.471.324-17.11,1.5.505,2.385,2.826,4.29,1.867,1.465-.739.531-4.913,3.474-3.383,2.709,1.4.648,3.889-.1,5.937-1.529,4.1.544,9.009-.868,12.34-2.268,5.34-4.757,9.073.454,14.375C126.45,438.325,120.941,439.518,119.062,441.514Z" transform="translate(33.397 119.038)" fill="#926546"/>
      <path id="Path_9935" data-name="Path 9935" d="M108.553,383.283c3.072-1.841,6.274-3.266,8.62-6.39,1.128-1.5,3.279-4.926,6.481-2.048-4.485,4.485-10.849,8.672-2.216,15.127.868.648,1.542,2.035.531,2.942-7.518,6.688-1.167,9.073,4.589,12.392l-8.218,1.555c-1.815-2.878-3.694-6.157-6.9-7.142s-3.889-1.3-2.722-4.9S108.709,387.159,108.553,383.283Z" transform="translate(32.045 110.696)" fill="#926546"/>
      <path id="Path_9936" data-name="Path 9936" d="M145.25,401.264l3.4-1.944c1.633,1.426,3.266,2.839,2.942,5.781C148.944,404.466,146.015,404.881,145.25,401.264Z" transform="translate(43.022 118.276)" fill="#978660"/>
      <path id="Path_9937" data-name="Path 9937" d="M134.215,484.366c6.481,5.457,14.258,9.54,19.248,16.98-8.1-2.359-13.13-11.342-22.632-10.3l-5.742-7.272C128.655,481.177,131.3,484.43,134.215,484.366Z" transform="translate(37.051 142.992)" fill="#4f6537"/>
      <path id="Path_9938" data-name="Path 9938" d="M88.55,382.094c2.942-2.722.454-8.062,4.874-10.084-2.878,5.185,2.683,11.381-2.268,16.254C88.822,387.15,88.589,384.674,88.55,382.094Z" transform="translate(26.228 110.187)" fill="#e1dbde"/>
      <path id="Path_9939" data-name="Path 9939" d="M116.587,232.877l3.02,1.594c2.424-2.476,1.944-5.535,1.7-8.555,0-2.994.13-5.975,1.789-8.633a9.553,9.553,0,0,1,10.486,5.185c-.868,2.424-3.889-1.063-4.576,1.581a2.592,2.592,0,0,0,2.281,3.007c2.476.35,2.748,2.437,3.772,3.889-1.763,3.655-5.185,5.185-8.594,6.779-2.281,2.4-4.537-1.62-6.818,0l-1.737,1.815a7.562,7.562,0,0,1-1.439-.22Z" transform="translate(34.498 64.302)" fill="#7c5031"/>
      <path id="Path_9940" data-name="Path 9940" d="M118.92,233.392c2.294-2.709,4.55-.985,6.818,0-.143,1.828.389,4.64-1.555,5C120.864,239.057,121.344,234.468,118.92,233.392Z" transform="translate(35.223 68.699)" fill="#594021"/>
      <path id="Path_9941" data-name="Path 9941" d="M125.078,201.44c-1.737,6.74,4.627,11.147,4.926,17.291l-8.373,1.374c.441-3.992.881-8,1.3-11.99Z" transform="translate(36.026 59.665)" fill="#6f4626"/>
      <path id="Path_9942" data-name="Path 9942" d="M120.588,223.9c4.329,3.824,3.59,6.649-1.7,8.555C119.136,229.538,118.216,226.389,120.588,223.9Z" transform="translate(35.214 66.318)" fill="#594021"/>
    </g>
  </g>
</svg>
